<?xml version="1.0" encoding="UTF-8"?>
<svg width="128" height="128" viewBox="0 0 128 128" xmlns="http://www.w3.org/2000/svg">
  <defs>
    <!-- Table surface -->
    <radialGradient id="tableGrad" cx="50%" cy="40%" r="100%">
      <stop offset="0%" style="stop-color:#0E7ACC;stop-opacity:1" />
      <stop offset="100%" style="stop-color:#0455A8;stop-opacity:1" />
    </radialGradient>
    
    <!-- Parchment texture -->
    <linearGradient id="parchment" x1="0%" y1="0%" x2="100%" y2="100%">
      <stop offset="0%" style="stop-color:#fffef8;stop-opacity:1" />
      <stop offset="100%" style="stop-color:#faf8f0;stop-opacity:1" />
    </linearGradient>
    
    <!-- Mountain fold highlights -->
    <linearGradient id="mountainFold" x1="0%" y1="0%" x2="100%" y2="0%">
      <stop offset="0%" style="stop-color:#ffffff;stop-opacity:0" />
      <stop offset="32%" style="stop-color:#ffffff;stop-opacity:0" />
      <stop offset="33%" style="stop-color:#ffffff;stop-opacity:0.15" />
      <stop offset="34%" style="stop-color:#ffffff;stop-opacity:0" />
      <stop offset="65%" style="stop-color:#ffffff;stop-opacity:0" />
      <stop offset="66%" style="stop-color:#ffffff;stop-opacity:0.15" />
      <stop offset="67%" style="stop-color:#ffffff;stop-opacity:0" />
      <stop offset="100%" style="stop-color:#ffffff;stop-opacity:0" />
    </linearGradient>
    
    <!-- Deep shadow -->
    <filter id="deepShadow">
      <feGaussianBlur in="SourceAlpha" stdDeviation="3.5"/>
      <feOffset dx="1" dy="5" result="offsetblur"/>
      <feFlood flood-color="#000000" flood-opacity="0.3"/>
      <feComposite in2="offsetblur" operator="in"/>
      <feMerge>
        <feMergeNode/>
        <feMergeNode in="SourceGraphic"/>
      </feMerge>
    </filter>
  </defs>
  
  <!-- Background -->
  <rect width="128" height="128" fill="url(#tableGrad)" rx="18" ry="18"/>
  
  <!-- Map with accordion fold effect -->
  <g filter="url(#deepShadow)">
    <!-- Base paper -->
    <path d="M 12 12 L 42 10 L 43 11 L 85 11 L 86 10 L 116 12 L 116 116 L 86 118 L 85 117 L 43 117 L 42 118 L 12 116 Z"
          fill="url(#parchment)"/>
    
    <!-- Mountain fold highlights -->
    <rect x="12" y="10" width="104" height="108" fill="url(#mountainFold)" opacity="0.7"/>
    
    <!-- Code on left panel -->
    <g transform="skewY(-0.5)">
      <rect x="16" y="22" width="22" height="2" rx="0.5" fill="#569CD6" opacity="0.9"/>
      <rect x="16" y="27" width="18" height="2" rx="0.5" fill="#4EC9B0" opacity="0.9"/>
      <rect x="16" y="32" width="24" height="2" rx="0.5" fill="#C586C0" opacity="0.9"/>
      <rect x="16" y="37" width="16" height="2" rx="0.5" fill="#DCDCAA" opacity="0.9"/>
      <rect x="16" y="42" width="20" height="2" rx="0.5" fill="#CE9178" opacity="0.9"/>
      <rect x="16" y="47" width="22" height="2" rx="0.5" fill="#569CD6" opacity="0.9"/>
      <rect x="16" y="52" width="18" height="2" rx="0.5" fill="#B5CEA8" opacity="0.9"/>
      <rect x="16" y="57" width="24" height="2" rx="0.5" fill="#9CDCFE" opacity="0.9"/>
      <rect x="16" y="62" width="20" height="2" rx="0.5" fill="#FFD700" opacity="0.9"/>
      <rect x="16" y="67" width="22" height="2" rx="0.5" fill="#FF6B6B" opacity="0.9"/>
      <rect x="16" y="72" width="18" height="2" rx="0.5" fill="#4ECDC4" opacity="0.9"/>
      <rect x="16" y="77" width="24" height="2" rx="0.5" fill="#C586C0" opacity="0.9"/>
      <rect x="16" y="82" width="20" height="2" rx="0.5" fill="#569CD6" opacity="0.9"/>
      <rect x="16" y="87" width="22" height="2" rx="0.5" fill="#DCDCAA" opacity="0.9"/>
      <rect x="16" y="92" width="18" height="2" rx="0.5" fill="#CE9178" opacity="0.9"/>
      <rect x="16" y="97" width="24" height="2" rx="0.5" fill="#B5CEA8" opacity="0.9"/>
      <rect x="16" y="102" width="20" height="2" rx="0.5" fill="#9CDCFE" opacity="0.9"/>
      <rect x="16" y="107" width="22" height="2" rx="0.5" fill="#FFD700" opacity="0.9"/>
    </g>
    
    <!-- Code on middle panel -->
    <g transform="skewY(0.3)">
      <rect x="40" y="22" width="4" height="2" rx="0.5" fill="#569CD6" opacity="0.85"/>
      <rect x="46" y="22" width="36" height="2" rx="0.5" fill="#9CDCFE" opacity="0.85"/>
      <rect x="38" y="27" width="6" height="2" rx="0.5" fill="#4EC9B0" opacity="0.85"/>
      <rect x="46" y="27" width="34" height="2" rx="0.5" fill="#FFD700" opacity="0.85"/>
      <rect x="46" y="32" width="38" height="2" rx="0.5" fill="#4ECDC4" opacity="0.85"/>
      <rect x="36" y="37" width="8" height="2" rx="0.5" fill="#DCDCAA" opacity="0.85"/>
      <rect x="46" y="37" width="36" height="2" rx="0.5" fill="#FF6B6B" opacity="0.85"/>
      <rect x="38" y="42" width="6" height="2" rx="0.5" fill="#CE9178" opacity="0.85"/>
      <rect x="46" y="42" width="34" height="2" rx="0.5" fill="#569CD6" opacity="0.85"/>
      <rect x="40" y="47" width="4" height="2" rx="0.5" fill="#569CD6" opacity="0.85"/>
      <rect x="46" y="47" width="38" height="2" rx="0.5" fill="#B5CEA8" opacity="0.85"/>
      <rect x="36" y="52" width="8" height="2" rx="0.5" fill="#B5CEA8" opacity="0.85"/>
      <rect x="46" y="52" width="36" height="2" rx="0.5" fill="#C586C0" opacity="0.85"/>
      <rect x="46" y="57" width="34" height="2" rx="0.5" fill="#DCDCAA" opacity="0.85"/>
      <rect x="40" y="62" width="4" height="2" rx="0.5" fill="#FFD700" opacity="0.85"/>
      <rect x="46" y="62" width="38" height="2" rx="0.5" fill="#4EC9B0" opacity="0.85"/>
      <rect x="38" y="67" width="6" height="2" rx="0.5" fill="#FF6B6B" opacity="0.85"/>
      <rect x="46" y="67" width="36" height="2" rx="0.5" fill="#CE9178" opacity="0.85"/>
      <rect x="36" y="72" width="8" height="2" rx="0.5" fill="#4ECDC4" opacity="0.85"/>
      <rect x="46" y="72" width="34" height="2" rx="0.5" fill="#9CDCFE" opacity="0.85"/>
      <rect x="46" y="77" width="38" height="2" rx="0.5" fill="#FFD700" opacity="0.85"/>
      <rect x="40" y="82" width="4" height="2" rx="0.5" fill="#569CD6" opacity="0.85"/>
      <rect x="46" y="82" width="36" height="2" rx="0.5" fill="#4ECDC4" opacity="0.85"/>
      <rect x="38" y="87" width="6" height="2" rx="0.5" fill="#DCDCAA" opacity="0.85"/>
      <rect x="46" y="87" width="34" height="2" rx="0.5" fill="#FF6B6B" opacity="0.85"/>
      <rect x="46" y="92" width="38" height="2" rx="0.5" fill="#569CD6" opacity="0.85"/>
      <rect x="36" y="97" width="8" height="2" rx="0.5" fill="#B5CEA8" opacity="0.85"/>
      <rect x="46" y="97" width="36" height="2" rx="0.5" fill="#C586C0" opacity="0.85"/>
      <rect x="40" y="102" width="4" height="2" rx="0.5" fill="#9CDCFE" opacity="0.85"/>
      <rect x="46" y="102" width="34" height="2" rx="0.5" fill="#DCDCAA" opacity="0.85"/>
      <rect x="46" y="107" width="38" height="2" rx="0.5" fill="#CE9178" opacity="0.85"/>
    </g>
    
    <!-- Code on right panel -->
    <g transform="skewY(-0.5)">
      <rect x="86" y="22" width="26" height="2" rx="0.5" fill="#DCDCAA" opacity="0.9"/>
      <rect x="84" y="27" width="28" height="2" rx="0.5" fill="#4EC9B0" opacity="0.9"/>
      <rect x="88" y="32" width="24" height="2" rx="0.5" fill="#CE9178" opacity="0.9"/>
      <rect x="86" y="37" width="26" height="2" rx="0.5" fill="#569CD6" opacity="0.9"/>
      <rect x="84" y="42" width="28" height="2" rx="0.5" fill="#B5CEA8" opacity="0.9"/>
      <rect x="88" y="47" width="24" height="2" rx="0.5" fill="#C586C0" opacity="0.9"/>
      <rect x="86" y="52" width="26" height="2" rx="0.5" fill="#9CDCFE" opacity="0.9"/>
      <rect x="84" y="57" width="28" height="2" rx="0.5" fill="#FFD700" opacity="0.9"/>
      <rect x="88" y="62" width="24" height="2" rx="0.5" fill="#FF6B6B" opacity="0.9"/>
      <rect x="86" y="67" width="26" height="2" rx="0.5" fill="#4ECDC4" opacity="0.9"/>
      <rect x="84" y="72" width="28" height="2" rx="0.5" fill="#569CD6" opacity="0.9"/>
      <rect x="88" y="77" width="24" height="2" rx="0.5" fill="#DCDCAA" opacity="0.9"/>
      <rect x="86" y="82" width="26" height="2" rx="0.5" fill="#CE9178" opacity="0.9"/>
      <rect x="84" y="87" width="28" height="2" rx="0.5" fill="#B5CEA8" opacity="0.9"/>
      <rect x="88" y="92" width="24" height="2" rx="0.5" fill="#C586C0" opacity="0.9"/>
      <rect x="86" y="97" width="26" height="2" rx="0.5" fill="#9CDCFE" opacity="0.9"/>
      <rect x="84" y="102" width="28" height="2" rx="0.5" fill="#FFD700" opacity="0.9"/>
      <rect x="88" y="107" width="24" height="2" rx="0.5" fill="#4ECDC4" opacity="0.9"/>
    </g>
  </g>
</svg>