<?xml version="1.0" encoding="UTF-8"?>
<svg width="128" height="128" viewBox="0 0 128 128" xmlns="http://www.w3.org/2000/svg">
  <defs>
    <!-- Ocean blue background -->
    <linearGradient id="oceanBlue" x1="0%" y1="0%" x2="100%" y2="100%">
      <stop offset="0%" style="stop-color:#0098ff;stop-opacity:1" />
      <stop offset="50%" style="stop-color:#0078D4;stop-opacity:1" />
      <stop offset="100%" style="stop-color:#0066cc;stop-opacity:1" />
    </linearGradient>
    
    <!-- Map paper with slight texture -->
    <radialGradient id="mapTexture" cx="50%" cy="50%" r="100%">
      <stop offset="0%" style="stop-color:#ffffff;stop-opacity:1" />
      <stop offset="100%" style="stop-color:#f8f8f8;stop-opacity:1" />
    </radialGradient>
    
    <!-- Gentle fold gradient -->
    <linearGradient id="gentleFold" x1="0%" y1="0%" x2="100%" y2="0%">
      <stop offset="0%" style="stop-color:#000000;stop-opacity:0" />
      <stop offset="32.5%" style="stop-color:#000000;stop-opacity:0.03" />
      <stop offset="33.5%" style="stop-color:#000000;stop-opacity:0.06" />
      <stop offset="34.5%" style="stop-color:#000000;stop-opacity:0.03" />
      <stop offset="65.5%" style="stop-color:#000000;stop-opacity:0.03" />
      <stop offset="66.5%" style="stop-color:#000000;stop-opacity:0.06" />
      <stop offset="67.5%" style="stop-color:#000000;stop-opacity:0.03" />
      <stop offset="100%" style="stop-color:#000000;stop-opacity:0" />
    </linearGradient>
    
    <!-- Soft drop shadow -->
    <filter id="mapDrop" x="-10%" y="-10%" width="120%" height="120%">
      <feGaussianBlur in="SourceAlpha" stdDeviation="2.5"/>
      <feOffset dx="1" dy="2" result="offsetblur"/>
      <feFlood flood-color="#000000" flood-opacity="0.18"/>
      <feComposite in2="offsetblur" operator="in"/>
      <feMerge>
        <feMergeNode/>
        <feMergeNode in="SourceGraphic"/>
      </feMerge>
    </filter>
  </defs>
  
  <!-- Background -->
  <rect width="128" height="128" fill="url(#oceanBlue)" rx="16" ry="16"/>
  
  <!-- Map with very subtle wave transform -->
  <g filter="url(#mapDrop)">
    <!-- Base map shape with slight wave -->
    <path d="M 11 11 
             Q 11 11, 42 12 
             Q 43 12, 43 12
             Q 43 12, 85 11
             Q 86 11, 86 11
             Q 86 11, 117 12
             L 117 116
             Q 117 116, 86 117
             Q 85 117, 85 117
             Q 85 117, 43 116
             Q 42 116, 42 116
             Q 42 116, 11 117
             Z"
          fill="url(#mapTexture)"/>
    
    <!-- Gentle fold overlay -->
    <rect x="11" y="11" width="106" height="106" fill="url(#gentleFold)"/>
    
    <!-- Code lines following gentle curves -->
    <!-- Left section -->
    <g opacity="0.9">
      <rect x="16" y="21" width="24" height="2.3" rx="1" fill="#569CD6"/>
      <rect x="16" y="26" width="20" height="2.3" rx="1" fill="#4EC9B0"/>
      <rect x="16" y="31" width="26" height="2.3" rx="1" fill="#C586C0"/>
      <rect x="16" y="36" width="18" height="2.3" rx="1" fill="#DCDCAA"/>
      <rect x="16" y="41" width="22" height="2.3" rx="1" fill="#CE9178"/>
      <rect x="16" y="46" width="24" height="2.3" rx="1" fill="#569CD6"/>
      <rect x="16" y="51" width="20" height="2.3" rx="1" fill="#B5CEA8"/>
      <rect x="16" y="56" width="26" height="2.3" rx="1" fill="#9CDCFE"/>
      <rect x="16" y="61" width="22" height="2.3" rx="1" fill="#FFD700"/>
      <rect x="16" y="66" width="24" height="2.3" rx="1" fill="#FF6B6B"/>
      <rect x="16" y="71" width="20" height="2.3" rx="1" fill="#4ECDC4"/>
      <rect x="16" y="76" width="26" height="2.3" rx="1" fill="#C586C0"/>
      <rect x="16" y="81" width="22" height="2.3" rx="1" fill="#569CD6"/>
      <rect x="16" y="86" width="24" height="2.3" rx="1" fill="#DCDCAA"/>
      <rect x="16" y="91" width="20" height="2.3" rx="1" fill="#CE9178"/>
      <rect x="16" y="96" width="26" height="2.3" rx="1" fill="#B5CEA8"/>
      <rect x="16" y="101" width="22" height="2.3" rx="1" fill="#9CDCFE"/>
      <rect x="16" y="106" width="24" height="2.3" rx="1" fill="#FFD700"/>
      <rect x="16" y="111" width="20" height="2.3" rx="1" fill="#FF6B6B"/>
    </g>
    
    <!-- Middle section with subtle offset -->
    <g opacity="0.87" transform="translate(0, 0.2)">
      <rect x="42" y="21" width="4" height="2.3" rx="1" fill="#569CD6"/>
      <rect x="48" y="21" width="34" height="2.3" rx="1" fill="#9CDCFE"/>
      <rect x="40" y="26" width="6" height="2.3" rx="1" fill="#4EC9B0"/>
      <rect x="48" y="26" width="32" height="2.3" rx="1" fill="#FFD700"/>
      <rect x="44" y="31" width="2" height="2.3" rx="1" fill="#C586C0"/>
      <rect x="48" y="31" width="36" height="2.3" rx="1" fill="#4ECDC4"/>
      <rect x="38" y="36" width="8" height="2.3" rx="1" fill="#DCDCAA"/>
      <rect x="48" y="36" width="34" height="2.3" rx="1" fill="#FF6B6B"/>
      <rect x="40" y="41" width="6" height="2.3" rx="1" fill="#CE9178"/>
      <rect x="48" y="41" width="32" height="2.3" rx="1" fill="#569CD6"/>
      <rect x="42" y="46" width="4" height="2.3" rx="1" fill="#569CD6"/>
      <rect x="48" y="46" width="36" height="2.3" rx="1" fill="#B5CEA8"/>
      <rect x="44" y="51" width="2" height="2.3" rx="1" fill="#B5CEA8"/>
      <rect x="48" y="51" width="34" height="2.3" rx="1" fill="#C586C0"/>
      <rect x="48" y="56" width="32" height="2.3" rx="1" fill="#DCDCAA"/>
      <rect x="40" y="61" width="6" height="2.3" rx="1" fill="#FFD700"/>
      <rect x="48" y="61" width="36" height="2.3" rx="1" fill="#4EC9B0"/>
      <rect x="42" y="66" width="4" height="2.3" rx="1" fill="#FF6B6B"/>
      <rect x="48" y="66" width="34" height="2.3" rx="1" fill="#CE9178"/>
      <rect x="38" y="71" width="8" height="2.3" rx="1" fill="#4ECDC4"/>
      <rect x="48" y="71" width="32" height="2.3" rx="1" fill="#9CDCFE"/>
      <rect x="44" y="76" width="2" height="2.3" rx="1" fill="#C586C0"/>
      <rect x="48" y="76" width="36" height="2.3" rx="1" fill="#FFD700"/>
      <rect x="40" y="81" width="6" height="2.3" rx="1" fill="#569CD6"/>
      <rect x="48" y="81" width="34" height="2.3" rx="1" fill="#4ECDC4"/>
      <rect x="42" y="86" width="4" height="2.3" rx="1" fill="#DCDCAA"/>
      <rect x="48" y="86" width="32" height="2.3" rx="1" fill="#FF6B6B"/>
      <rect x="38" y="91" width="8" height="2.3" rx="1" fill="#CE9178"/>
      <rect x="48" y="91" width="36" height="2.3" rx="1" fill="#569CD6"/>
      <rect x="44" y="96" width="2" height="2.3" rx="1" fill="#B5CEA8"/>
      <rect x="48" y="96" width="34" height="2.3" rx="1" fill="#C586C0"/>
      <rect x="48" y="101" width="32" height="2.3" rx="1" fill="#DCDCAA"/>
      <rect x="40" y="106" width="6" height="2.3" rx="1" fill="#FFD700"/>
      <rect x="48" y="106" width="36" height="2.3" rx="1" fill="#CE9178"/>
      <rect x="48" y="111" width="34" height="2.3" rx="1" fill="#B5CEA8"/>
    </g>
    
    <!-- Right section -->
    <g opacity="0.9">
      <rect x="86" y="21" width="26" height="2.3" rx="1" fill="#DCDCAA"/>
      <rect x="84" y="26" width="28" height="2.3" rx="1" fill="#4EC9B0"/>
      <rect x="88" y="31" width="24" height="2.3" rx="1" fill="#CE9178"/>
      <rect x="86" y="36" width="26" height="2.3" rx="1" fill="#569CD6"/>
      <rect x="84" y="41" width="28" height="2.3" rx="1" fill="#B5CEA8"/>
      <rect x="88" y="46" width="24" height="2.3" rx="1" fill="#C586C0"/>
      <rect x="86" y="51" width="26" height="2.3" rx="1" fill="#9CDCFE"/>
      <rect x="84" y="56" width="28" height="2.3" rx="1" fill="#FFD700"/>
      <rect x="88" y="61" width="24" height="2.3" rx="1" fill="#FF6B6B"/>
      <rect x="86" y="66" width="26" height="2.3" rx="1" fill="#4ECDC4"/>
      <rect x="84" y="71" width="28" height="2.3" rx="1" fill="#569CD6"/>
      <rect x="88" y="76" width="24" height="2.3" rx="1" fill="#DCDCAA"/>
      <rect x="86" y="81" width="26" height="2.3" rx="1" fill="#CE9178"/>
      <rect x="84" y="86" width="28" height="2.3" rx="1" fill="#B5CEA8"/>
      <rect x="88" y="91" width="24" height="2.3" rx="1" fill="#C586C0"/>
      <rect x="86" y="96" width="26" height="2.3" rx="1" fill="#9CDCFE"/>
      <rect x="84" y="101" width="28" height="2.3" rx="1" fill="#FFD700"/>
      <rect x="88" y="106" width="24" height="2.3" rx="1" fill="#4ECDC4"/>
      <rect x="86" y="111" width="26" height="2.3" rx="1" fill="#FF6B6B"/>
    </g>
  </g>
</svg>