<?xml version="1.0" encoding="UTF-8"?>
<svg width="128" height="128" viewBox="0 0 128 128" xmlns="http://www.w3.org/2000/svg">
  <defs>
    <!-- Background gradient -->
    <radialGradient id="bgGradient" cx="50%" cy="40%" r="80%">
      <stop offset="0%" style="stop-color:#0098ff;stop-opacity:1" />
      <stop offset="100%" style="stop-color:#0066cc;stop-opacity:1" />
    </radialGradient>
    
    <!-- Paper gradients for each fold section -->
    <linearGradient id="leftPanel" x1="0%" y1="0%" x2="100%" y2="0%">
      <stop offset="0%" style="stop-color:#ffffff;stop-opacity:1" />
      <stop offset="85%" style="stop-color:#fafafa;stop-opacity:1" />
      <stop offset="100%" style="stop-color:#e8e8e8;stop-opacity:1" />
    </linearGradient>
    
    <linearGradient id="centerLeftPanel" x1="0%" y1="0%" x2="100%" y2="0%">
      <stop offset="0%" style="stop-color:#e8e8e8;stop-opacity:1" />
      <stop offset="15%" style="stop-color:#f5f5f5;stop-opacity:1" />
      <stop offset="85%" style="stop-color:#f5f5f5;stop-opacity:1" />
      <stop offset="100%" style="stop-color:#e0e0e0;stop-opacity:1" />
    </linearGradient>
    
    <linearGradient id="centerRightPanel" x1="0%" y1="0%" x2="100%" y2="0%">
      <stop offset="0%" style="stop-color:#e0e0e0;stop-opacity:1" />
      <stop offset="15%" style="stop-color:#f8f8f8;stop-opacity:1" />
      <stop offset="85%" style="stop-color:#f8f8f8;stop-opacity:1" />
      <stop offset="100%" style="stop-color:#e8e8e8;stop-opacity:1" />
    </linearGradient>
    
    <linearGradient id="rightPanel" x1="0%" y1="0%" x2="100%" y2="0%">
      <stop offset="0%" style="stop-color:#e8e8e8;stop-opacity:1" />
      <stop offset="15%" style="stop-color:#fafafa;stop-opacity:1" />
      <stop offset="100%" style="stop-color:#ffffff;stop-opacity:1" />
    </linearGradient>
    
    <!-- Strong fold shadows -->
    <linearGradient id="leftFoldShadow" x1="0%" y1="0%" x2="100%" y2="0%">
      <stop offset="0%" style="stop-color:#000000;stop-opacity:0" />
      <stop offset="85%" style="stop-color:#000000;stop-opacity:0.15" />
      <stop offset="100%" style="stop-color:#000000;stop-opacity:0.25" />
    </linearGradient>
    
    <linearGradient id="rightFoldShadow" x1="0%" y1="0%" x2="100%" y2="0%">
      <stop offset="0%" style="stop-color:#000000;stop-opacity:0.25" />
      <stop offset="15%" style="stop-color:#000000;stop-opacity:0.15" />
      <stop offset="100%" style="stop-color:#000000;stop-opacity:0" />
    </linearGradient>
    
    <!-- Drop shadow -->
    <filter id="paperShadow" x="-20%" y="-20%" width="140%" height="140%">
      <feGaussianBlur in="SourceAlpha" stdDeviation="3"/>
      <feOffset dx="2" dy="4" result="offsetblur"/>
      <feFlood flood-color="#000000" flood-opacity="0.3"/>
      <feComposite in2="offsetblur" operator="in"/>
      <feMerge>
        <feMergeNode/>
        <feMergeNode in="SourceGraphic"/>
      </feMerge>
    </filter>
  </defs>
  
  <!-- Background -->
  <rect width="128" height="128" fill="url(#bgGradient)" rx="20" ry="20"/>
  
  <!-- Folded map -->
  <g filter="url(#paperShadow)">
    <!-- Left panel (raised) -->
    <g transform="translate(32, 64) rotate(-2) skewY(1) translate(-32, -64)">
      <rect x="12" y="12" width="32" height="104" fill="url(#leftPanel)" rx="1"/>
      <!-- Shadow overlay -->
      <rect x="12" y="12" width="32" height="104" fill="url(#leftFoldShadow)" opacity="0.5"/>
      
      <!-- Code lines on left panel -->
      <g transform="skewY(-1)">
        <rect x="15" y="20" width="22" height="2.5" fill="#569CD6" rx="0.5"/>
        <rect x="15" y="26" width="18" height="2.5" fill="#4EC9B0" rx="0.5"/>
        <rect x="15" y="32" width="24" height="2.5" fill="#C586C0" rx="0.5"/>
        <rect x="15" y="38" width="16" height="2.5" fill="#DCDCAA" rx="0.5"/>
        <rect x="15" y="44" width="20" height="2.5" fill="#CE9178" rx="0.5"/>
        <rect x="15" y="50" width="22" height="2.5" fill="#569CD6" rx="0.5"/>
        <rect x="15" y="56" width="18" height="2.5" fill="#B5CEA8" rx="0.5"/>
        <rect x="15" y="62" width="24" height="2.5" fill="#9CDCFE" rx="0.5"/>
        <rect x="15" y="68" width="16" height="2.5" fill="#FFD700" rx="0.5"/>
        <rect x="15" y="74" width="22" height="2.5" fill="#FF6B6B" rx="0.5"/>
        <rect x="15" y="80" width="20" height="2.5" fill="#4ECDC4" rx="0.5"/>
        <rect x="15" y="86" width="18" height="2.5" fill="#C586C0" rx="0.5"/>
        <rect x="15" y="92" width="24" height="2.5" fill="#569CD6" rx="0.5"/>
        <rect x="15" y="98" width="16" height="2.5" fill="#DCDCAA" rx="0.5"/>
        <rect x="15" y="104" width="22" height="2.5" fill="#CE9178" rx="0.5"/>
      </g>
    </g>
    
    <!-- Center-left panel (valley fold) -->
    <g transform="translate(48, 64) rotate(1.5) skewY(-1.5) translate(-48, -64)">
      <rect x="44" y="12" width="24" height="104" fill="url(#centerLeftPanel)" rx="1"/>
      <!-- Shadow overlay -->
      <rect x="44" y="12" width="24" height="104" fill="url(#rightFoldShadow)" opacity="0.4"/>
      
      <!-- Code lines continuing from left, bent with fold -->
      <g transform="skewY(1.5)">
        <rect x="39" y="20" width="6" height="2.5" fill="#569CD6" rx="0.5"/>
        <rect x="47" y="19.5" width="18" height="2.5" fill="#9CDCFE" rx="0.5"/>
        <rect x="39" y="26" width="8" height="2.5" fill="#4EC9B0" rx="0.5"/>
        <rect x="49" y="25.5" width="16" height="2.5" fill="#FFD700" rx="0.5"/>
        <rect x="41" y="32" width="4" height="2.5" fill="#C586C0" rx="0.5"/>
        <rect x="47" y="31.5" width="20" height="2.5" fill="#4ECDC4" rx="0.5"/>
        <rect x="47" y="37.5" width="18" height="2.5" fill="#FF6B6B" rx="0.5"/>
        <rect x="39" y="44" width="6" height="2.5" fill="#CE9178" rx="0.5"/>
        <rect x="47" y="43.5" width="20" height="2.5" fill="#569CD6" rx="0.5"/>
        <rect x="39" y="50" width="8" height="2.5" fill="#569CD6" rx="0.5"/>
        <rect x="49" y="49.5" width="16" height="2.5" fill="#B5CEA8" rx="0.5"/>
        <rect x="47" y="55.5" width="18" height="2.5" fill="#C586C0" rx="0.5"/>
        <rect x="41" y="62" width="4" height="2.5" fill="#9CDCFE" rx="0.5"/>
        <rect x="47" y="61.5" width="20" height="2.5" fill="#DCDCAA" rx="0.5"/>
        <rect x="47" y="67.5" width="16" height="2.5" fill="#4EC9B0" rx="0.5"/>
        <rect x="39" y="74" width="8" height="2.5" fill="#FF6B6B" rx="0.5"/>
        <rect x="49" y="73.5" width="18" height="2.5" fill="#CE9178" rx="0.5"/>
        <rect x="47" y="79.5" width="20" height="2.5" fill="#9CDCFE" rx="0.5"/>
        <rect x="47" y="85.5" width="16" height="2.5" fill="#FFD700" rx="0.5"/>
        <rect x="41" y="92" width="4" height="2.5" fill="#569CD6" rx="0.5"/>
        <rect x="47" y="91.5" width="18" height="2.5" fill="#4ECDC4" rx="0.5"/>
        <rect x="47" y="97.5" width="20" height="2.5" fill="#FF6B6B" rx="0.5"/>
        <rect x="39" y="104" width="6" height="2.5" fill="#CE9178" rx="0.5"/>
        <rect x="47" y="103.5" width="16" height="2.5" fill="#569CD6" rx="0.5"/>
      </g>
    </g>
    
    <!-- Center-right panel (mountain fold) -->
    <g transform="translate(80, 64) rotate(-1.5) skewY(1.5) translate(-80, -64)">
      <rect x="68" y="12" width="24" height="104" fill="url(#centerRightPanel)" rx="1"/>
      <!-- Shadow overlay -->
      <rect x="68" y="12" width="24" height="104" fill="url(#leftFoldShadow)" opacity="0.4"/>
      
      <!-- Code lines continuing, bent with fold -->
      <g transform="skewY(-1.5)">
        <rect x="67" y="19.5" width="4" height="2.5" fill="#9CDCFE" rx="0.5"/>
        <rect x="73" y="20" width="16" height="2.5" fill="#DCDCAA" rx="0.5"/>
        <rect x="67" y="25.5" width="6" height="2.5" fill="#FFD700" rx="0.5"/>
        <rect x="75" y="26" width="14" height="2.5" fill="#4EC9B0" rx="0.5"/>
        <rect x="69" y="31.5" width="2" height="2.5" fill="#4ECDC4" rx="0.5"/>
        <rect x="73" y="32" width="18" height="2.5" fill="#CE9178" rx="0.5"/>
        <rect x="67" y="37.5" width="6" height="2.5" fill="#FF6B6B" rx="0.5"/>
        <rect x="75" y="38" width="16" height="2.5" fill="#569CD6" rx="0.5"/>
        <rect x="69" y="43.5" width="4" height="2.5" fill="#569CD6" rx="0.5"/>
        <rect x="75" y="44" width="14" height="2.5" fill="#B5CEA8" rx="0.5"/>
        <rect x="67" y="49.5" width="6" height="2.5" fill="#B5CEA8" rx="0.5"/>
        <rect x="75" y="50" width="18" height="2.5" fill="#C586C0" rx="0.5"/>
        <rect x="67" y="55.5" width="8" height="2.5" fill="#C586C0" rx="0.5"/>
        <rect x="77" y="56" width="14" height="2.5" fill="#9CDCFE" rx="0.5"/>
        <rect x="69" y="61.5" width="2" height="2.5" fill="#DCDCAA" rx="0.5"/>
        <rect x="73" y="62" width="18" height="2.5" fill="#FFD700" rx="0.5"/>
        <rect x="65" y="67.5" width="8" height="2.5" fill="#4EC9B0" rx="0.5"/>
        <rect x="75" y="68" width="16" height="2.5" fill="#FF6B6B" rx="0.5"/>
        <rect x="69" y="73.5" width="4" height="2.5" fill="#CE9178" rx="0.5"/>
        <rect x="75" y="74" width="14" height="2.5" fill="#4ECDC4" rx="0.5"/>
        <rect x="67" y="79.5" width="6" height="2.5" fill="#9CDCFE" rx="0.5"/>
        <rect x="75" y="80" width="18" height="2.5" fill="#569CD6" rx="0.5"/>
        <rect x="65" y="85.5" width="8" height="2.5" fill="#FFD700" rx="0.5"/>
        <rect x="75" y="86" width="16" height="2.5" fill="#DCDCAA" rx="0.5"/>
        <rect x="67" y="91.5" width="6" height="2.5" fill="#4ECDC4" rx="0.5"/>
        <rect x="75" y="92" width="14" height="2.5" fill="#CE9178" rx="0.5"/>
        <rect x="69" y="97.5" width="2" height="2.5" fill="#FF6B6B" rx="0.5"/>
        <rect x="73" y="98" width="18" height="2.5" fill="#B5CEA8" rx="0.5"/>
        <rect x="65" y="103.5" width="8" height="2.5" fill="#569CD6" rx="0.5"/>
        <rect x="75" y="104" width="16" height="2.5" fill="#C586C0" rx="0.5"/>
      </g>
    </g>
    
    <!-- Right panel (raised) -->
    <g transform="translate(96, 64) rotate(2) skewY(-1) translate(-96, -64)">
      <rect x="92" y="12" width="24" height="104" fill="url(#rightPanel)" rx="1"/>
      <!-- Shadow overlay -->
      <rect x="92" y="12" width="24" height="104" fill="url(#rightFoldShadow)" opacity="0.5"/>
      
      <!-- Code lines on right panel -->
      <g transform="skewY(1)">
        <rect x="93" y="20" width="20" height="2.5" fill="#9CDCFE" rx="0.5"/>
        <rect x="93" y="26" width="16" height="2.5" fill="#FFD700" rx="0.5"/>
        <rect x="93" y="32" width="18" height="2.5" fill="#4ECDC4" rx="0.5"/>
        <rect x="93" y="38" width="14" height="2.5" fill="#FF6B6B" rx="0.5"/>
        <rect x="93" y="44" width="20" height="2.5" fill="#569CD6" rx="0.5"/>
        <rect x="93" y="50" width="16" height="2.5" fill="#B5CEA8" rx="0.5"/>
        <rect x="93" y="56" width="18" height="2.5" fill="#C586C0" rx="0.5"/>
        <rect x="93" y="62" width="14" height="2.5" fill="#DCDCAA" rx="0.5"/>
        <rect x="93" y="68" width="20" height="2.5" fill="#4EC9B0" rx="0.5"/>
        <rect x="93" y="74" width="16" height="2.5" fill="#CE9178" rx="0.5"/>
        <rect x="93" y="80" width="18" height="2.5" fill="#9CDCFE" rx="0.5"/>
        <rect x="93" y="86" width="14" height="2.5" fill="#FFD700" rx="0.5"/>
        <rect x="93" y="92" width="20" height="2.5" fill="#4ECDC4" rx="0.5"/>
        <rect x="93" y="98" width="16" height="2.5" fill="#FF6B6B" rx="0.5"/>
        <rect x="93" y="104" width="18" height="2.5" fill="#569CD6" rx="0.5"/>
      </g>
    </g>
  </g>
</svg>