<?xml version="1.0" encoding="UTF-8"?>
<svg width="128" height="128" viewBox="0 0 128 128" xmlns="http://www.w3.org/2000/svg">
  <defs>
    <!-- Background gradient -->
    <linearGradient id="bgGradient" x1="0%" y1="0%" x2="100%" y2="100%">
      <stop offset="0%" style="stop-color:#0E7ACC;stop-opacity:1" />
      <stop offset="100%" style="stop-color:#0066cc;stop-opacity:1" />
    </linearGradient>
    
    <!-- Paper gradient -->
    <linearGradient id="paperGradient" x1="0%" y1="0%" x2="100%" y2="0%">
      <stop offset="0%" style="stop-color:#ffffff;stop-opacity:1" />
      <stop offset="49%" style="stop-color:#fefefe;stop-opacity:1" />
      <stop offset="50%" style="stop-color:#f8f8f8;stop-opacity:1" />
      <stop offset="51%" style="stop-color:#fefefe;stop-opacity:1" />
      <stop offset="100%" style="stop-color:#ffffff;stop-opacity:1" />
    </linearGradient>
    
    <!-- Center fold shadow -->
    <linearGradient id="centerFold" x1="0%" y1="0%" x2="100%" y2="0%">
      <stop offset="0%" style="stop-color:#000000;stop-opacity:0" />
      <stop offset="48%" style="stop-color:#000000;stop-opacity:0" />
      <stop offset="49.5%" style="stop-color:#000000;stop-opacity:0.08" />
      <stop offset="50%" style="stop-color:#000000;stop-opacity:0.12" />
      <stop offset="50.5%" style="stop-color:#000000;stop-opacity:0.08" />
      <stop offset="52%" style="stop-color:#000000;stop-opacity:0" />
      <stop offset="100%" style="stop-color:#000000;stop-opacity:0" />
    </linearGradient>
    
    <!-- Paper shadow -->
    <filter id="shadow" x="-10%" y="-10%" width="120%" height="120%">
      <feGaussianBlur in="SourceAlpha" stdDeviation="2"/>
      <feOffset dx="1" dy="2" result="offsetblur"/>
      <feFlood flood-color="#000000" flood-opacity="0.2"/>
      <feComposite in2="offsetblur" operator="in"/>
      <feMerge>
        <feMergeNode/>
        <feMergeNode in="SourceGraphic"/>
      </feMerge>
    </filter>
  </defs>
  
  <!-- Background -->
  <rect width="128" height="128" fill="url(#bgGradient)" rx="16" ry="16"/>
  
  <!-- Map paper -->
  <g filter="url(#shadow)">
    <!-- Left half with subtle transform -->
    <g transform="skewY(-0.5)">
      <rect x="10" y="10" width="54" height="108" fill="url(#paperGradient)"/>
      
      <!-- Code lines on left half -->
      <rect x="14" y="18" width="38" height="3" fill="#569CD6" opacity="0.9" rx="0.5"/>
      <rect x="14" y="24" width="32" height="3" fill="#4EC9B0" opacity="0.9" rx="0.5"/>
      <rect x="14" y="30" width="42" height="3" fill="#C586C0" opacity="0.9" rx="0.5"/>
      <rect x="14" y="36" width="28" height="3" fill="#DCDCAA" opacity="0.9" rx="0.5"/>
      <rect x="14" y="42" width="36" height="3" fill="#CE9178" opacity="0.9" rx="0.5"/>
      <rect x="14" y="48" width="40" height="3" fill="#569CD6" opacity="0.9" rx="0.5"/>
      <rect x="14" y="54" width="30" height="3" fill="#B5CEA8" opacity="0.9" rx="0.5"/>
      <rect x="14" y="60" width="44" height="3" fill="#9CDCFE" opacity="0.9" rx="0.5"/>
      <rect x="14" y="66" width="34" height="3" fill="#FFD700" opacity="0.9" rx="0.5"/>
      <rect x="14" y="72" width="38" height="3" fill="#FF6B6B" opacity="0.9" rx="0.5"/>
      <rect x="14" y="78" width="42" height="3" fill="#4ECDC4" opacity="0.9" rx="0.5"/>
      <rect x="14" y="84" width="32" height="3" fill="#C586C0" opacity="0.9" rx="0.5"/>
      <rect x="14" y="90" width="40" height="3" fill="#569CD6" opacity="0.9" rx="0.5"/>
      <rect x="14" y="96" width="36" height="3" fill="#DCDCAA" opacity="0.9" rx="0.5"/>
      <rect x="14" y="102" width="44" height="3" fill="#CE9178" opacity="0.9" rx="0.5"/>
      <rect x="14" y="108" width="30" height="3" fill="#B5CEA8" opacity="0.9" rx="0.5"/>
    </g>
    
    <!-- Right half with opposite subtle transform -->
    <g transform="skewY(0.5)">
      <rect x="64" y="10" width="54" height="108" fill="url(#paperGradient)"/>
      
      <!-- Code lines on right half (continuing from left) -->
      <rect x="58" y="18" width="8" height="3" fill="#569CD6" opacity="0.9" rx="0.5"/>
      <rect x="70" y="18" width="36" height="3" fill="#9CDCFE" opacity="0.9" rx="0.5"/>
      <rect x="50" y="24" width="16" height="3" fill="#4EC9B0" opacity="0.9" rx="0.5"/>
      <rect x="70" y="24" width="40" height="3" fill="#FFD700" opacity="0.9" rx="0.5"/>
      <rect x="70" y="30" width="32" height="3" fill="#4ECDC4" opacity="0.9" rx="0.5"/>
      <rect x="46" y="36" width="20" height="3" fill="#DCDCAA" opacity="0.9" rx="0.5"/>
      <rect x="70" y="36" width="38" height="3" fill="#FF6B6B" opacity="0.9" rx="0.5"/>
      <rect x="54" y="42" width="12" height="3" fill="#CE9178" opacity="0.9" rx="0.5"/>
      <rect x="70" y="42" width="44" height="3" fill="#569CD6" opacity="0.9" rx="0.5"/>
      <rect x="58" y="48" width="8" height="3" fill="#569CD6" opacity="0.9" rx="0.5"/>
      <rect x="70" y="48" width="36" height="3" fill="#B5CEA8" opacity="0.9" rx="0.5"/>
      <rect x="48" y="54" width="18" height="3" fill="#B5CEA8" opacity="0.9" rx="0.5"/>
      <rect x="70" y="54" width="40" height="3" fill="#C586C0" opacity="0.9" rx="0.5"/>
      <rect x="62" y="60" width="4" height="3" fill="#9CDCFE" opacity="0.9" rx="0.5"/>
      <rect x="70" y="60" width="42" height="3" fill="#DCDCAA" opacity="0.9" rx="0.5"/>
      <rect x="70" y="66" width="38" height="3" fill="#4EC9B0" opacity="0.9" rx="0.5"/>
      <rect x="56" y="72" width="10" height="3" fill="#FF6B6B" opacity="0.9" rx="0.5"/>
      <rect x="70" y="72" width="44" height="3" fill="#CE9178" opacity="0.9" rx="0.5"/>
      <rect x="60" y="78" width="6" height="3" fill="#4ECDC4" opacity="0.9" rx="0.5"/>
      <rect x="70" y="78" width="36" height="3" fill="#9CDCFE" opacity="0.9" rx="0.5"/>
      <rect x="50" y="84" width="16" height="3" fill="#C586C0" opacity="0.9" rx="0.5"/>
      <rect x="70" y="84" width="40" height="3" fill="#FFD700" opacity="0.9" rx="0.5"/>
      <rect x="58" y="90" width="8" height="3" fill="#569CD6" opacity="0.9" rx="0.5"/>
      <rect x="70" y="90" width="42" height="3" fill="#4ECDC4" opacity="0.9" rx="0.5"/>
      <rect x="54" y="96" width="12" height="3" fill="#DCDCAA" opacity="0.9" rx="0.5"/>
      <rect x="70" y="96" width="38" height="3" fill="#FF6B6B" opacity="0.9" rx="0.5"/>
      <rect x="46" y="102" width="20" height="3" fill="#CE9178" opacity="0.9" rx="0.5"/>
      <rect x="70" y="102" width="44" height="3" fill="#569CD6" opacity="0.9" rx="0.5"/>
      <rect x="48" y="108" width="18" height="3" fill="#B5CEA8" opacity="0.9" rx="0.5"/>
      <rect x="70" y="108" width="36" height="3" fill="#9CDCFE" opacity="0.9" rx="0.5"/>
    </g>
    
    <!-- Center fold shadow overlay -->
    <rect x="10" y="10" width="108" height="108" fill="url(#centerFold)"/>
    
    <!-- Paper outline -->
    <rect x="10" y="10" width="108" height="108" fill="none" stroke="#e8e8e8" stroke-width="0.5" rx="2" ry="2"/>
  </g>
</svg>