<?xml version="1.0" encoding="UTF-8"?>
<svg width="128" height="128" viewBox="0 0 128 128" xmlns="http://www.w3.org/2000/svg">
  <defs>
    <!-- Background gradient -->
    <radialGradient id="bgGradient" cx="50%" cy="40%" r="80%">
      <stop offset="0%" style="stop-color:#0098ff;stop-opacity:1" />
      <stop offset="100%" style="stop-color:#0066cc;stop-opacity:1" />
    </radialGradient>
    
    <!-- Paper gradient for subtle texture -->
    <linearGradient id="paperTexture" x1="0%" y1="0%" x2="100%" y2="100%">
      <stop offset="0%" style="stop-color:#ffffff;stop-opacity:1" />
      <stop offset="50%" style="stop-color:#fefefe;stop-opacity:1" />
      <stop offset="100%" style="stop-color:#fcfcfc;stop-opacity:1" />
    </linearGradient>
    
    <!-- Fold shadow gradients -->
    <linearGradient id="foldShadow1" x1="0%" y1="0%" x2="100%" y2="0%">
      <stop offset="0%" style="stop-color:#000000;stop-opacity:0" />
      <stop offset="48%" style="stop-color:#000000;stop-opacity:0" />
      <stop offset="50%" style="stop-color:#000000;stop-opacity:0.08" />
      <stop offset="52%" style="stop-color:#000000;stop-opacity:0" />
      <stop offset="100%" style="stop-color:#000000;stop-opacity:0" />
    </linearGradient>
    
    <linearGradient id="foldShadow2" x1="0%" y1="0%" x2="100%" y2="0%">
      <stop offset="0%" style="stop-color:#000000;stop-opacity:0" />
      <stop offset="31%" style="stop-color:#000000;stop-opacity:0" />
      <stop offset="33%" style="stop-color:#000000;stop-opacity:0.06" />
      <stop offset="35%" style="stop-color:#000000;stop-opacity:0" />
      <stop offset="65%" style="stop-color:#000000;stop-opacity:0" />
      <stop offset="67%" style="stop-color:#000000;stop-opacity:0.06" />
      <stop offset="69%" style="stop-color:#000000;stop-opacity:0" />
      <stop offset="100%" style="stop-color:#000000;stop-opacity:0" />
    </linearGradient>
    
    <!-- Drop shadow -->
    <filter id="paperShadow" x="-20%" y="-20%" width="140%" height="140%">
      <feGaussianBlur in="SourceAlpha" stdDeviation="2.5"/>
      <feOffset dx="1" dy="2" result="offsetblur"/>
      <feFlood flood-color="#000000" flood-opacity="0.25"/>
      <feComposite in2="offsetblur" operator="in"/>
      <feMerge>
        <feMergeNode/>
        <feMergeNode in="SourceGraphic"/>
      </feMerge>
    </filter>
    
    <!-- Clip path for paper shape with subtle curves -->
    <clipPath id="paperClip">
      <path d="M 14 14 
               Q 14 12, 16 12
               L 48 12
               Q 48.5 12, 48.5 12.5
               Q 48.5 13, 49 13
               L 79 13
               Q 79.5 13, 79.5 12.5
               Q 79.5 12, 80 12
               L 112 12
               Q 114 12, 114 14
               L 114 114
               Q 114 116, 112 116
               L 80 116
               Q 79.5 116, 79.5 115.5
               Q 79.5 115, 79 115
               L 49 115
               Q 48.5 115, 48.5 115.5
               Q 48.5 116, 48 116
               L 16 116
               Q 14 116, 14 114
               Z"/>
    </clipPath>
  </defs>
  
  <!-- Background -->
  <rect width="128" height="128" fill="url(#bgGradient)" rx="20" ry="20"/>
  
  <!-- Main map group -->
  <g filter="url(#paperShadow)">
    <!-- Base paper -->
    <g clip-path="url(#paperClip)">
      <!-- Paper background -->
      <rect x="14" y="12" width="100" height="104" fill="url(#paperTexture)"/>
      
      <!-- Fold shadows overlay -->
      <rect x="14" y="12" width="100" height="104" fill="url(#foldShadow2)" opacity="0.8"/>
      
      <!-- Section 1 (leftmost) with subtle transform -->
      <g transform="translate(64, 64) rotate(0.3) translate(-64, -64)">
        <rect x="14" y="12" width="34" height="104" fill="none"/>
        <!-- Code lines in section 1 -->
        <rect x="18" y="20" width="22" height="2.5" fill="#569CD6" opacity="0.85" rx="0.5"/>
        <rect x="18" y="26" width="18" height="2.5" fill="#4EC9B0" opacity="0.85" rx="0.5"/>
        <rect x="18" y="32" width="24" height="2.5" fill="#C586C0" opacity="0.85" rx="0.5"/>
        <rect x="18" y="38" width="16" height="2.5" fill="#DCDCAA" opacity="0.85" rx="0.5"/>
        <rect x="18" y="44" width="20" height="2.5" fill="#CE9178" opacity="0.85" rx="0.5"/>
        <rect x="18" y="50" width="22" height="2.5" fill="#569CD6" opacity="0.85" rx="0.5"/>
        <rect x="18" y="56" width="18" height="2.5" fill="#B5CEA8" opacity="0.85" rx="0.5"/>
        <rect x="18" y="62" width="24" height="2.5" fill="#9CDCFE" opacity="0.85" rx="0.5"/>
        <rect x="18" y="68" width="16" height="2.5" fill="#FFD700" opacity="0.85" rx="0.5"/>
        <rect x="18" y="74" width="22" height="2.5" fill="#FF6B6B" opacity="0.85" rx="0.5"/>
        <rect x="18" y="80" width="20" height="2.5" fill="#4ECDC4" opacity="0.85" rx="0.5"/>
        <rect x="18" y="86" width="18" height="2.5" fill="#C586C0" opacity="0.85" rx="0.5"/>
        <rect x="18" y="92" width="24" height="2.5" fill="#569CD6" opacity="0.85" rx="0.5"/>
        <rect x="18" y="98" width="16" height="2.5" fill="#DCDCAA" opacity="0.85" rx="0.5"/>
        <rect x="18" y="104" width="22" height="2.5" fill="#CE9178" opacity="0.85" rx="0.5"/>
      </g>
      
      <!-- Section 2 (middle-left) with opposite transform -->
      <g transform="translate(64, 64) rotate(-0.2) translate(-64, -64)">
        <rect x="48" y="12" width="31" height="104" fill="none"/>
        <!-- Code lines in section 2 (continuing from section 1) -->
        <rect x="44" y="20" width="20" height="2.5" fill="#569CD6" opacity="0.85" rx="0.5"/>
        <rect x="40" y="26" width="24" height="2.5" fill="#4EC9B0" opacity="0.85" rx="0.5"/>
        <rect x="44" y="32" width="16" height="2.5" fill="#C586C0" opacity="0.85" rx="0.5"/>
        <rect x="38" y="38" width="26" height="2.5" fill="#DCDCAA" opacity="0.85" rx="0.5"/>
        <rect x="42" y="44" width="22" height="2.5" fill="#CE9178" opacity="0.85" rx="0.5"/>
        <rect x="44" y="50" width="18" height="2.5" fill="#569CD6" opacity="0.85" rx="0.5"/>
        <rect x="40" y="56" width="24" height="2.5" fill="#B5CEA8" opacity="0.85" rx="0.5"/>
        <rect x="44" y="62" width="20" height="2.5" fill="#9CDCFE" opacity="0.85" rx="0.5"/>
        <rect x="38" y="68" width="26" height="2.5" fill="#FFD700" opacity="0.85" rx="0.5"/>
        <rect x="44" y="74" width="18" height="2.5" fill="#FF6B6B" opacity="0.85" rx="0.5"/>
        <rect x="42" y="80" width="22" height="2.5" fill="#4ECDC4" opacity="0.85" rx="0.5"/>
        <rect x="40" y="86" width="24" height="2.5" fill="#C586C0" opacity="0.85" rx="0.5"/>
        <rect x="44" y="92" width="16" height="2.5" fill="#569CD6" opacity="0.85" rx="0.5"/>
        <rect x="38" y="98" width="26" height="2.5" fill="#DCDCAA" opacity="0.85" rx="0.5"/>
        <rect x="42" y="104" width="20" height="2.5" fill="#CE9178" opacity="0.85" rx="0.5"/>
      </g>
      
      <!-- Section 3 (middle-right) -->
      <g transform="translate(64, 64) rotate(0.2) translate(-64, -64)">
        <rect x="79" y="12" width="35" height="104" fill="none"/>
        <!-- Code lines in section 3 -->
        <rect x="66" y="20" width="18" height="2.5" fill="#569CD6" opacity="0.85" rx="0.5"/>
        <rect x="66" y="26" width="22" height="2.5" fill="#4EC9B0" opacity="0.85" rx="0.5"/>
        <rect x="62" y="32" width="26" height="2.5" fill="#C586C0" opacity="0.85" rx="0.5"/>
        <rect x="66" y="38" width="20" height="2.5" fill="#DCDCAA" opacity="0.85" rx="0.5"/>
        <rect x="64" y="44" width="24" height="2.5" fill="#CE9178" opacity="0.85" rx="0.5"/>
        <rect x="62" y="50" width="26" height="2.5" fill="#569CD6" opacity="0.85" rx="0.5"/>
        <rect x="66" y="56" width="20" height="2.5" fill="#B5CEA8" opacity="0.85" rx="0.5"/>
        <rect x="64" y="62" width="24" height="2.5" fill="#9CDCFE" opacity="0.85" rx="0.5"/>
        <rect x="66" y="68" width="22" height="2.5" fill="#FFD700" opacity="0.85" rx="0.5"/>
        <rect x="62" y="74" width="26" height="2.5" fill="#FF6B6B" opacity="0.85" rx="0.5"/>
        <rect x="66" y="80" width="18" height="2.5" fill="#4ECDC4" opacity="0.85" rx="0.5"/>
        <rect x="64" y="86" width="24" height="2.5" fill="#C586C0" opacity="0.85" rx="0.5"/>
        <rect x="62" y="92" width="26" height="2.5" fill="#569CD6" opacity="0.85" rx="0.5"/>
        <rect x="66" y="98" width="20" height="2.5" fill="#DCDCAA" opacity="0.85" rx="0.5"/>
        <rect x="64" y="104" width="22" height="2.5" fill="#CE9178" opacity="0.85" rx="0.5"/>
      </g>
      
      <!-- Section 4 (rightmost) -->
      <rect x="88" y="20" width="22" height="2.5" fill="#9CDCFE" opacity="0.85" rx="0.5"/>
      <rect x="90" y="26" width="18" height="2.5" fill="#FFD700" opacity="0.85" rx="0.5"/>
      <rect x="88" y="32" width="20" height="2.5" fill="#4ECDC4" opacity="0.85" rx="0.5"/>
      <rect x="90" y="38" width="16" height="2.5" fill="#FF6B6B" opacity="0.85" rx="0.5"/>
      <rect x="88" y="44" width="22" height="2.5" fill="#569CD6" opacity="0.85" rx="0.5"/>
      <rect x="90" y="50" width="18" height="2.5" fill="#B5CEA8" opacity="0.85" rx="0.5"/>
      <rect x="88" y="56" width="20" height="2.5" fill="#C586C0" opacity="0.85" rx="0.5"/>
      <rect x="90" y="62" width="16" height="2.5" fill="#DCDCAA" opacity="0.85" rx="0.5"/>
      <rect x="88" y="68" width="22" height="2.5" fill="#4EC9B0" opacity="0.85" rx="0.5"/>
      <rect x="90" y="74" width="18" height="2.5" fill="#CE9178" opacity="0.85" rx="0.5"/>
      <rect x="88" y="80" width="20" height="2.5" fill="#9CDCFE" opacity="0.85" rx="0.5"/>
      <rect x="90" y="86" width="16" height="2.5" fill="#FFD700" opacity="0.85" rx="0.5"/>
      <rect x="88" y="92" width="22" height="2.5" fill="#4ECDC4" opacity="0.85" rx="0.5"/>
      <rect x="90" y="98" width="18" height="2.5" fill="#FF6B6B" opacity="0.85" rx="0.5"/>
      <rect x="88" y="104" width="20" height="2.5" fill="#569CD6" opacity="0.85" rx="0.5"/>
    </g>
    
    <!-- Paper outline with subtle curves at fold lines -->
    <path d="M 14 14 
             Q 14 12, 16 12
             L 48 12
             Q 48.5 12, 48.5 12.5
             Q 48.5 13, 49 13
             L 79 13
             Q 79.5 13, 79.5 12.5
             Q 79.5 12, 80 12
             L 112 12
             Q 114 12, 114 14
             L 114 114
             Q 114 116, 112 116
             L 80 116
             Q 79.5 116, 79.5 115.5
             Q 79.5 115, 79 115
             L 49 115
             Q 48.5 115, 48.5 115.5
             Q 48.5 116, 48 116
             L 16 116
             Q 14 116, 14 114
             Z" 
          fill="none" 
          stroke="#e0e0e0" 
          stroke-width="0.5"/>
  </g>
</svg>