<?xml version="1.0" encoding="UTF-8"?>
<svg width="128" height="128" viewBox="0 0 128 128" xmlns="http://www.w3.org/2000/svg">
  <defs>
    <!-- Background gradient -->
    <radialGradient id="bgTable" cx="50%" cy="50%" r="80%">
      <stop offset="0%" style="stop-color:#0098ff;stop-opacity:1" />
      <stop offset="100%" style="stop-color:#0066cc;stop-opacity:1" />
    </radialGradient>
    
    <!-- Paper gradient with fold effect -->
    <linearGradient id="mapPaper" x1="0%" y1="0%" x2="100%" y2="0%">
      <stop offset="0%" style="stop-color:#ffffff;stop-opacity:1" />
      <stop offset="32%" style="stop-color:#ffffff;stop-opacity:1" />
      <stop offset="33%" style="stop-color:#f5f5f5;stop-opacity:1" />
      <stop offset="34%" style="stop-color:#ffffff;stop-opacity:1" />
      <stop offset="65%" style="stop-color:#ffffff;stop-opacity:1" />
      <stop offset="66%" style="stop-color:#f5f5f5;stop-opacity:1" />
      <stop offset="67%" style="stop-color:#ffffff;stop-opacity:1" />
      <stop offset="100%" style="stop-color:#ffffff;stop-opacity:1" />
    </linearGradient>
    
    <!-- Fold shadows -->
    <linearGradient id="foldShade" x1="0%" y1="0%" x2="100%" y2="0%">
      <stop offset="0%" style="stop-color:#000000;stop-opacity:0" />
      <stop offset="31%" style="stop-color:#000000;stop-opacity:0" />
      <stop offset="33%" style="stop-color:#000000;stop-opacity:0.08" />
      <stop offset="35%" style="stop-color:#000000;stop-opacity:0" />
      <stop offset="64%" style="stop-color:#000000;stop-opacity:0" />
      <stop offset="66%" style="stop-color:#000000;stop-opacity:0.08" />
      <stop offset="68%" style="stop-color:#000000;stop-opacity:0" />
      <stop offset="100%" style="stop-color:#000000;stop-opacity:0" />
    </linearGradient>
    
    <!-- Map shadow -->
    <filter id="mapShadow" x="-20%" y="-20%" width="140%" height="140%">
      <feGaussianBlur in="SourceAlpha" stdDeviation="3"/>
      <feOffset dx="2" dy="4" result="offsetblur"/>
      <feFlood flood-color="#000000" flood-opacity="0.25"/>
      <feComposite in2="offsetblur" operator="in"/>
      <feMerge>
        <feMergeNode/>
        <feMergeNode in="SourceGraphic"/>
      </feMerge>
    </filter>
  </defs>
  
  <!-- Background (table) -->
  <rect width="128" height="128" fill="url(#bgTable)" rx="16" ry="16"/>
  
  <!-- Treasure map with slight perspective -->
  <g transform="skewX(-1)">
    <rect x="12" y="12" width="104" height="104" rx="2" ry="2" 
          fill="url(#mapPaper)" filter="url(#mapShadow)"/>
    
    <!-- Fold shadow overlay -->
    <rect x="12" y="12" width="104" height="104" rx="2" ry="2" 
          fill="url(#foldShade)"/>
    
    <!-- Code lines following the folds -->
    <!-- Left section -->
    <g transform="translate(0, 0.5)">
      <rect x="18" y="22" width="24" height="2.5" rx="1" fill="#569CD6" opacity="0.9"/>
      <rect x="18" y="28" width="20" height="2.5" rx="1" fill="#4EC9B0" opacity="0.9"/>
      <rect x="18" y="34" width="26" height="2.5" rx="1" fill="#C586C0" opacity="0.9"/>
      <rect x="18" y="40" width="18" height="2.5" rx="1" fill="#DCDCAA" opacity="0.9"/>
      <rect x="18" y="46" width="22" height="2.5" rx="1" fill="#CE9178" opacity="0.9"/>
      <rect x="18" y="52" width="24" height="2.5" rx="1" fill="#569CD6" opacity="0.9"/>
      <rect x="18" y="58" width="20" height="2.5" rx="1" fill="#B5CEA8" opacity="0.9"/>
      <rect x="18" y="64" width="26" height="2.5" rx="1" fill="#9CDCFE" opacity="0.9"/>
      <rect x="18" y="70" width="22" height="2.5" rx="1" fill="#FFD700" opacity="0.9"/>
      <rect x="18" y="76" width="24" height="2.5" rx="1" fill="#FF6B6B" opacity="0.9"/>
      <rect x="18" y="82" width="20" height="2.5" rx="1" fill="#4ECDC4" opacity="0.9"/>
      <rect x="18" y="88" width="26" height="2.5" rx="1" fill="#C586C0" opacity="0.9"/>
      <rect x="18" y="94" width="22" height="2.5" rx="1" fill="#569CD6" opacity="0.9"/>
      <rect x="18" y="100" width="24" height="2.5" rx="1" fill="#DCDCAA" opacity="0.9"/>
      <rect x="18" y="106" width="20" height="2.5" rx="1" fill="#CE9178" opacity="0.9"/>
    </g>
    
    <!-- Middle section (slightly offset at fold) -->
    <g transform="translate(0, -0.3)">
      <rect x="46" y="22" width="16" height="2.5" rx="1" fill="#569CD6" opacity="0.9"/>
      <rect x="64" y="22" width="20" height="2.5" rx="1" fill="#9CDCFE" opacity="0.9"/>
      <rect x="42" y="28" width="20" height="2.5" rx="1" fill="#4EC9B0" opacity="0.9"/>
      <rect x="64" y="28" width="18" height="2.5" rx="1" fill="#FFD700" opacity="0.9"/>
      <rect x="48" y="34" width="14" height="2.5" rx="1" fill="#C586C0" opacity="0.9"/>
      <rect x="64" y="34" width="22" height="2.5" rx="1" fill="#4ECDC4" opacity="0.9"/>
      <rect x="40" y="40" width="22" height="2.5" rx="1" fill="#DCDCAA" opacity="0.9"/>
      <rect x="64" y="40" width="16" height="2.5" rx="1" fill="#FF6B6B" opacity="0.9"/>
      <rect x="44" y="46" width="18" height="2.5" rx="1" fill="#CE9178" opacity="0.9"/>
      <rect x="64" y="46" width="20" height="2.5" rx="1" fill="#569CD6" opacity="0.9"/>
      <rect x="46" y="52" width="16" height="2.5" rx="1" fill="#569CD6" opacity="0.9"/>
      <rect x="64" y="52" width="22" height="2.5" rx="1" fill="#B5CEA8" opacity="0.9"/>
      <rect x="42" y="58" width="20" height="2.5" rx="1" fill="#B5CEA8" opacity="0.9"/>
      <rect x="64" y="58" width="18" height="2.5" rx="1" fill="#C586C0" opacity="0.9"/>
      <rect x="48" y="64" width="14" height="2.5" rx="1" fill="#9CDCFE" opacity="0.9"/>
      <rect x="64" y="64" width="22" height="2.5" rx="1" fill="#DCDCAA" opacity="0.9"/>
      <rect x="44" y="70" width="18" height="2.5" rx="1" fill="#FFD700" opacity="0.9"/>
      <rect x="64" y="70" width="20" height="2.5" rx="1" fill="#4EC9B0" opacity="0.9"/>
      <rect x="46" y="76" width="16" height="2.5" rx="1" fill="#FF6B6B" opacity="0.9"/>
      <rect x="64" y="76" width="22" height="2.5" rx="1" fill="#CE9178" opacity="0.9"/>
      <rect x="42" y="82" width="20" height="2.5" rx="1" fill="#4ECDC4" opacity="0.9"/>
      <rect x="64" y="82" width="18" height="2.5" rx="1" fill="#9CDCFE" opacity="0.9"/>
      <rect x="48" y="88" width="14" height="2.5" rx="1" fill="#C586C0" opacity="0.9"/>
      <rect x="64" y="88" width="22" height="2.5" rx="1" fill="#FFD700" opacity="0.9"/>
      <rect x="44" y="94" width="18" height="2.5" rx="1" fill="#569CD6" opacity="0.9"/>
      <rect x="64" y="94" width="20" height="2.5" rx="1" fill="#4ECDC4" opacity="0.9"/>
      <rect x="46" y="100" width="16" height="2.5" rx="1" fill="#DCDCAA" opacity="0.9"/>
      <rect x="64" y="100" width="22" height="2.5" rx="1" fill="#FF6B6B" opacity="0.9"/>
      <rect x="42" y="106" width="20" height="2.5" rx="1" fill="#CE9178" opacity="0.9"/>
      <rect x="64" y="106" width="18" height="2.5" rx="1" fill="#569CD6" opacity="0.9"/>
    </g>
    
    <!-- Right section -->
    <g transform="translate(0, 0.5)">
      <rect x="88" y="22" width="22" height="2.5" rx="1" fill="#DCDCAA" opacity="0.9"/>
      <rect x="86" y="28" width="24" height="2.5" rx="1" fill="#4EC9B0" opacity="0.9"/>
      <rect x="90" y="34" width="20" height="2.5" rx="1" fill="#CE9178" opacity="0.9"/>
      <rect x="84" y="40" width="26" height="2.5" rx="1" fill="#569CD6" opacity="0.9"/>
      <rect x="88" y="46" width="22" height="2.5" rx="1" fill="#B5CEA8" opacity="0.9"/>
      <rect x="90" y="52" width="20" height="2.5" rx="1" fill="#C586C0" opacity="0.9"/>
      <rect x="86" y="58" width="24" height="2.5" rx="1" fill="#9CDCFE" opacity="0.9"/>
      <rect x="88" y="64" width="22" height="2.5" rx="1" fill="#FFD700" opacity="0.9"/>
      <rect x="86" y="70" width="24" height="2.5" rx="1" fill="#FF6B6B" opacity="0.9"/>
      <rect x="90" y="76" width="20" height="2.5" rx="1" fill="#4ECDC4" opacity="0.9"/>
      <rect x="84" y="82" width="26" height="2.5" rx="1" fill="#569CD6" opacity="0.9"/>
      <rect x="88" y="88" width="22" height="2.5" rx="1" fill="#DCDCAA" opacity="0.9"/>
      <rect x="86" y="94" width="24" height="2.5" rx="1" fill="#CE9178" opacity="0.9"/>
      <rect x="90" y="100" width="20" height="2.5" rx="1" fill="#B5CEA8" opacity="0.9"/>
      <rect x="86" y="106" width="24" height="2.5" rx="1" fill="#C586C0" opacity="0.9"/>
    </g>
  </g>
</svg>