<?xml version="1.0" encoding="UTF-8"?>
<svg width="128" height="128" viewBox="0 0 128 128" xmlns="http://www.w3.org/2000/svg">
  <defs>
    <!-- Modern gradient -->
    <linearGradient id="bgModern" x1="0%" y1="100%" x2="100%" y2="0%">
      <stop offset="0%" style="stop-color:#0078D4;stop-opacity:1" />
      <stop offset="100%" style="stop-color:#00BCF2;stop-opacity:1" />
    </linearGradient>
    
    <!-- Card shadow -->
    <filter id="cardShadow">
      <feDropShadow dx="0" dy="4" stdDeviation="4" flood-opacity="0.15"/>
    </filter>
    
    <!-- Highlight gradient for pages -->
    <linearGradient id="pageHighlight" x1="0%" y1="0%" x2="0%" y2="100%">
      <stop offset="0%" style="stop-color:#ffffff;stop-opacity:1" />
      <stop offset="100%" style="stop-color:#fafafa;stop-opacity:1" />
    </linearGradient>
  </defs>
  
  <!-- Background -->
  <rect width="128" height="128" fill="url(#bgModern)" rx="24" ry="24"/>
  
  <!-- Source document (left) - card style -->
  <rect x="8" y="14" width="56" height="100" rx="6" ry="6" 
        fill="url(#pageHighlight)" filter="url(#cardShadow)"/>
  
  <!-- Header bar on source -->
  <rect x="8" y="14" width="56" height="8" rx="6" ry="6" fill="#f0f0f0"/>
  <rect x="8" y="20" width="56" height="2" fill="#f0f0f0"/>
  
  <!-- Code lines on source -->
  <rect x="13" y="28" width="46" height="2" rx="1" fill="#569CD6" opacity="0.9"/>
  <rect x="13" y="34" width="40" height="2" rx="1" fill="#4EC9B0" opacity="0.9"/>
  <rect x="13" y="40" width="44" height="2" rx="1" fill="#C586C0" opacity="0.9"/>
  <rect x="13" y="46" width="38" height="2" rx="1" fill="#DCDCAA" opacity="0.9"/>
  <rect x="13" y="52" width="42" height="2" rx="1" fill="#CE9178" opacity="0.9"/>
  <rect x="13" y="58" width="46" height="2" rx="1" fill="#569CD6" opacity="0.9"/>
  <rect x="13" y="64" width="36" height="2" rx="1" fill="#B5CEA8" opacity="0.9"/>
  <rect x="13" y="70" width="44" height="2" rx="1" fill="#9CDCFE" opacity="0.9"/>
  <rect x="13" y="76" width="40" height="2" rx="1" fill="#FFD700" opacity="0.9"/>
  <rect x="13" y="82" width="43" height="2" rx="1" fill="#FF6B6B" opacity="0.9"/>
  <rect x="13" y="88" width="38" height="2" rx="1" fill="#4ECDC4" opacity="0.9"/>
  <rect x="13" y="94" width="45" height="2" rx="1" fill="#C586C0" opacity="0.9"/>
  <rect x="13" y="100" width="41" height="2" rx="1" fill="#569CD6" opacity="0.9"/>
  <rect x="13" y="106" width="44" height="2" rx="1" fill="#DCDCAA" opacity="0.9"/>
  
  <!-- Generated document (right) - card style -->
  <rect x="66" y="14" width="56" height="100" rx="6" ry="6" 
        fill="url(#pageHighlight)" filter="url(#cardShadow)"/>
  
  <!-- Header bar on generated -->
  <rect x="66" y="14" width="56" height="8" rx="6" ry="6" fill="#f0f0f0"/>
  <rect x="66" y="20" width="56" height="2" fill="#f0f0f0"/>
  
  <!-- Code lines on generated -->
  <rect x="71" y="28" width="43" height="2" rx="1" fill="#9CDCFE" opacity="0.9"/>
  <rect x="71" y="34" width="47" height="2" rx="1" fill="#B5CEA8" opacity="0.9"/>
  <rect x="71" y="40" width="41" height="2" rx="1" fill="#FFD700" opacity="0.9"/>
  <rect x="71" y="46" width="45" height="2" rx="1" fill="#FF6B6B" opacity="0.9"/>
  <rect x="71" y="52" width="39" height="2" rx="1" fill="#4ECDC4" opacity="0.9"/>
  <rect x="71" y="58" width="43" height="2" rx="1" fill="#569CD6" opacity="0.9"/>
  <rect x="71" y="64" width="47" height="2" rx="1" fill="#CE9178" opacity="0.9"/>
  <rect x="71" y="70" width="40" height="2" rx="1" fill="#DCDCAA" opacity="0.9"/>
  <rect x="71" y="76" width="44" height="2" rx="1" fill="#9CDCFE" opacity="0.9"/>
  <rect x="71" y="82" width="42" height="2" rx="1" fill="#B5CEA8" opacity="0.9"/>
  <rect x="71" y="88" width="46" height="2" rx="1" fill="#FFD700" opacity="0.9"/>
  <rect x="71" y="94" width="38" height="2" rx="1" fill="#4ECDC4" opacity="0.9"/>
  <rect x="71" y="100" width="45" height="2" rx="1" fill="#FF6B6B" opacity="0.9"/>
  <rect x="71" y="106" width="41" height="2" rx="1" fill="#569CD6" opacity="0.9"/>
  
  <!-- Dynamic bezier connections -->
  <g stroke-width="1.2" fill="none" opacity="0.35" stroke-linecap="round">
    <!-- Line 2 (y=35) to Line 9 (y=77) -->
    <path d="M 35 35 C 50 35, 75 60, 95 77" stroke="#000000"/>
    
    <!-- Line 5 (y=53) to Line 12 (y=95) -->
    <path d="M 45 53 C 60 53, 80 75, 105 95" stroke="#000000"/>
    
    <!-- Line 8 (y=71) to Line 3 (y=41) -->
    <path d="M 50 71 C 65 71, 70 50, 85 41" stroke="#000000"/>
    
    <!-- Line 11 (y=89) to Line 7 (y=65) -->
    <path d="M 40 89 C 55 89, 85 75, 110 65" stroke="#000000"/>
    
    <!-- Line 6 (y=59) to Line 13 (y=101) -->
    <path d="M 48 59 C 65 59, 75 85, 100 101" stroke="#000000"/>
    
    <!-- Line 3 (y=41) to Line 10 (y=83) -->
    <path d="M 42 41 C 58 41, 70 65, 90 83" stroke="#000000"/>
  </g>
</svg>