<?xml version="1.0" encoding="UTF-8"?>
<svg width="128" height="128" viewBox="0 0 128 128" xmlns="http://www.w3.org/2000/svg">
  <defs>
    <!-- Gradient for VSCode blue background -->
    <linearGradient id="bgGradient" x1="0%" y1="0%" x2="100%" y2="100%">
      <stop offset="0%" style="stop-color:#0098ff;stop-opacity:1" />
      <stop offset="100%" style="stop-color:#0066cc;stop-opacity:1" />
    </linearGradient>
    
    <!-- Drop shadow -->
    <filter id="dropShadow">
      <feDropShadow dx="0" dy="2" stdDeviation="3" flood-opacity="0.2"/>
    </filter>
  </defs>
  
  <!-- Background -->
  <rect width="128" height="128" fill="url(#bgGradient)" rx="24" ry="24"/>
  
  <!-- Source document (left) - 45% of 128 = ~58px -->
  <rect x="8" y="14" width="56" height="100" rx="4" ry="4" 
        fill="#ffffff" filter="url(#dropShadow)"/>
  
  <!-- Code lines on source -->
  <rect x="14" y="24" width="36" height="3" rx="1" fill="#569CD6"/>
  <rect x="14" y="30" width="40" height="3" rx="1" fill="#4EC9B0"/>
  <rect x="14" y="36" width="32" height="3" rx="1" fill="#C586C0"/>
  <rect x="14" y="42" width="38" height="3" rx="1" fill="#DCDCAA"/>
  <rect x="14" y="48" width="28" height="3" rx="1" fill="#CE9178"/>
  <rect x="14" y="54" width="42" height="3" rx="1" fill="#569CD6"/>
  <rect x="14" y="60" width="34" height="3" rx="1" fill="#B5CEA8"/>
  <rect x="14" y="66" width="38" height="3" rx="1" fill="#9CDCFE"/>
  <rect x="14" y="72" width="30" height="3" rx="1" fill="#FFD700"/>
  <rect x="14" y="78" width="40" height="3" rx="1" fill="#FF6B6B"/>
  <rect x="14" y="84" width="32" height="3" rx="1" fill="#4ECDC4"/>
  <rect x="14" y="90" width="36" height="3" rx="1" fill="#C586C0"/>
  <rect x="14" y="96" width="42" height="3" rx="1" fill="#569CD6"/>
  <rect x="14" y="102" width="28" height="3" rx="1" fill="#DCDCAA"/>
  <rect x="14" y="108" width="38" height="3" rx="1" fill="#CE9178"/>
  
  <!-- Generated document (right) - 45% of 128 = ~58px -->
  <rect x="64" y="14" width="56" height="100" rx="4" ry="4" 
        fill="#ffffff" filter="url(#dropShadow)"/>
  
  <!-- Code lines on generated -->
  <rect x="70" y="24" width="42" height="3" rx="1" fill="#9CDCFE"/>
  <rect x="70" y="30" width="34" height="3" rx="1" fill="#B5CEA8"/>
  <rect x="70" y="36" width="38" height="3" rx="1" fill="#FFD700"/>
  <rect x="70" y="42" width="36" height="3" rx="1" fill="#FF6B6B"/>
  <rect x="70" y="48" width="40" height="3" rx="1" fill="#4ECDC4"/>
  <rect x="70" y="54" width="32" height="3" rx="1" fill="#569CD6"/>
  <rect x="70" y="60" width="42" height="3" rx="1" fill="#CE9178"/>
  <rect x="70" y="66" width="36" height="3" rx="1" fill="#DCDCAA"/>
  <rect x="70" y="72" width="38" height="3" rx="1" fill="#9CDCFE"/>
  <rect x="70" y="78" width="34" height="3" rx="1" fill="#B5CEA8"/>
  <rect x="70" y="84" width="40" height="3" rx="1" fill="#FFD700"/>
  <rect x="70" y="90" width="30" height="3" rx="1" fill="#4ECDC4"/>
  <rect x="70" y="96" width="38" height="3" rx="1" fill="#FF6B6B"/>
  <rect x="70" y="102" width="42" height="3" rx="1" fill="#569CD6"/>
  <rect x="70" y="108" width="36" height="3" rx="1" fill="#C586C0"/>
  
  <!-- Connection arrows/curves -->
  <g stroke-width="3" fill="none" opacity="0.8" stroke-linecap="round">
    <!-- Top connection -->
    <path d="M 50 25.5 Q 64 25.5 70 25.5" stroke="#FFD700"/>
    <circle cx="70" cy="25.5" r="2" fill="#FFD700"/>
    
    <!-- Middle connection -->
    <path d="M 54 49.5 Q 64 52 70 49.5" stroke="#4ECDC4"/>
    <circle cx="70" cy="49.5" r="2" fill="#4ECDC4"/>
    
    <!-- Lower connection -->
    <path d="M 48 79.5 Q 64 82 70 78.5" stroke="#FF6B6B"/>
    <circle cx="70" cy="78.5" r="2" fill="#FF6B6B"/>
    
    <!-- Bottom connection -->
    <path d="M 52 103.5 Q 64 103.5 70 103.5" stroke="#569CD6"/>
    <circle cx="70" cy="103.5" r="2" fill="#569CD6"/>
  </g>
</svg>