<?xml version="1.0" encoding="UTF-8"?>
<svg width="128" height="128" viewBox="0 0 128 128" xmlns="http://www.w3.org/2000/svg">
  <defs>
    <!-- Background gradient -->
    <linearGradient id="bgGradient" x1="0%" y1="0%" x2="100%" y2="100%">
      <stop offset="0%" style="stop-color:#0E7ACC;stop-opacity:1" />
      <stop offset="100%" style="stop-color:#0066cc;stop-opacity:1" />
    </linearGradient>
    
    <!-- Panel gradients for 3D effect -->
    <linearGradient id="panel1" x1="0%" y1="0%" x2="100%" y2="0%">
      <stop offset="0%" style="stop-color:#ffffff;stop-opacity:1" />
      <stop offset="90%" style="stop-color:#f8f8f8;stop-opacity:1" />
      <stop offset="100%" style="stop-color:#e0e0e0;stop-opacity:1" />
    </linearGradient>
    
    <linearGradient id="panel2" x1="0%" y1="0%" x2="100%" y2="0%">
      <stop offset="0%" style="stop-color:#d8d8d8;stop-opacity:1" />
      <stop offset="10%" style="stop-color:#f0f0f0;stop-opacity:1" />
      <stop offset="90%" style="stop-color:#f0f0f0;stop-opacity:1" />
      <stop offset="100%" style="stop-color:#d8d8d8;stop-opacity:1" />
    </linearGradient>
    
    <linearGradient id="panel3" x1="0%" y1="0%" x2="100%" y2="0%">
      <stop offset="0%" style="stop-color:#e0e0e0;stop-opacity:1" />
      <stop offset="10%" style="stop-color:#f8f8f8;stop-opacity:1" />
      <stop offset="100%" style="stop-color:#ffffff;stop-opacity:1" />
    </linearGradient>
    
    <!-- Drop shadow -->
    <filter id="shadow" x="-20%" y="-20%" width="140%" height="140%">
      <feGaussianBlur in="SourceAlpha" stdDeviation="2.5"/>
      <feOffset dx="1" dy="3" result="offsetblur"/>
      <feFlood flood-color="#000000" flood-opacity="0.25"/>
      <feComposite in2="offsetblur" operator="in"/>
      <feMerge>
        <feMergeNode/>
        <feMergeNode in="SourceGraphic"/>
      </feMerge>
    </filter>
  </defs>
  
  <!-- Background -->
  <rect width="128" height="128" fill="url(#bgGradient)" rx="16" ry="16"/>
  
  <!-- Zigzag folded map -->
  <g filter="url(#shadow)">
    <!-- Panel 1 (/) - angling forward -->
    <g transform="skewY(-3) translate(0, 2)">
      <path d="M 10 14 L 48 10 L 48 114 L 10 118 Z" fill="url(#panel1)"/>
      
      <!-- Code lines on panel 1 following the angle -->
      <g transform="skewY(3) translate(0, -2)">
        <rect x="14" y="22" width="28" height="3" fill="#569CD6" opacity="0.9" rx="0.5"/>
        <rect x="14" y="28" width="24" height="3" fill="#4EC9B0" opacity="0.9" rx="0.5"/>
        <rect x="14" y="34" width="30" height="3" fill="#C586C0" opacity="0.9" rx="0.5"/>
        <rect x="14" y="40" width="20" height="3" fill="#DCDCAA" opacity="0.9" rx="0.5"/>
        <rect x="14" y="46" width="26" height="3" fill="#CE9178" opacity="0.9" rx="0.5"/>
        <rect x="14" y="52" width="28" height="3" fill="#569CD6" opacity="0.9" rx="0.5"/>
        <rect x="14" y="58" width="22" height="3" fill="#B5CEA8" opacity="0.9" rx="0.5"/>
        <rect x="14" y="64" width="30" height="3" fill="#9CDCFE" opacity="0.9" rx="0.5"/>
        <rect x="14" y="70" width="24" height="3" fill="#FFD700" opacity="0.9" rx="0.5"/>
        <rect x="14" y="76" width="28" height="3" fill="#FF6B6B" opacity="0.9" rx="0.5"/>
        <rect x="14" y="82" width="26" height="3" fill="#4ECDC4" opacity="0.9" rx="0.5"/>
        <rect x="14" y="88" width="22" height="3" fill="#C586C0" opacity="0.9" rx="0.5"/>
        <rect x="14" y="94" width="30" height="3" fill="#569CD6" opacity="0.9" rx="0.5"/>
        <rect x="14" y="100" width="24" height="3" fill="#DCDCAA" opacity="0.9" rx="0.5"/>
        <rect x="14" y="106" width="28" height="3" fill="#CE9178" opacity="0.9" rx="0.5"/>
      </g>
    </g>
    
    <!-- Panel 2 (\) - angling backward -->
    <g transform="skewY(3) translate(0, -2)">
      <path d="M 48 10 L 80 14 L 80 118 L 48 114 Z" fill="url(#panel2)"/>
      
      <!-- Code lines on panel 2 following the opposite angle -->
      <g transform="skewY(-3) translate(0, 2)">
        <!-- Lines continuing from panel 1 -->
        <rect x="44" y="22" width="6" height="3" fill="#569CD6" opacity="0.85" rx="0.5"/>
        <rect x="52" y="22" width="24" height="3" fill="#9CDCFE" opacity="0.85" rx="0.5"/>
        <rect x="44" y="28" width="8" height="3" fill="#4EC9B0" opacity="0.85" rx="0.5"/>
        <rect x="54" y="28" width="22" height="3" fill="#FFD700" opacity="0.85" rx="0.5"/>
        <rect x="46" y="34" width="4" height="3" fill="#C586C0" opacity="0.85" rx="0.5"/>
        <rect x="52" y="34" width="26" height="3" fill="#4ECDC4" opacity="0.85" rx="0.5"/>
        <rect x="46" y="40" width="10" height="3" fill="#DCDCAA" opacity="0.85" rx="0.5"/>
        <rect x="58" y="40" width="20" height="3" fill="#FF6B6B" opacity="0.85" rx="0.5"/>
        <rect x="44" y="46" width="8" height="3" fill="#CE9178" opacity="0.85" rx="0.5"/>
        <rect x="54" y="46" width="24" height="3" fill="#569CD6" opacity="0.85" rx="0.5"/>
        <rect x="44" y="52" width="6" height="3" fill="#569CD6" opacity="0.85" rx="0.5"/>
        <rect x="52" y="52" width="26" height="3" fill="#B5CEA8" opacity="0.85" rx="0.5"/>
        <rect x="44" y="58" width="10" height="3" fill="#B5CEA8" opacity="0.85" rx="0.5"/>
        <rect x="56" y="58" width="22" height="3" fill="#C586C0" opacity="0.85" rx="0.5"/>
        <rect x="46" y="64" width="4" height="3" fill="#9CDCFE" opacity="0.85" rx="0.5"/>
        <rect x="52" y="64" width="26" height="3" fill="#DCDCAA" opacity="0.85" rx="0.5"/>
        <rect x="44" y="70" width="8" height="3" fill="#FFD700" opacity="0.85" rx="0.5"/>
        <rect x="54" y="70" width="24" height="3" fill="#4EC9B0" opacity="0.85" rx="0.5"/>
        <rect x="44" y="76" width="6" height="3" fill="#FF6B6B" opacity="0.85" rx="0.5"/>
        <rect x="52" y="76" width="26" height="3" fill="#CE9178" opacity="0.85" rx="0.5"/>
        <rect x="44" y="82" width="8" height="3" fill="#4ECDC4" opacity="0.85" rx="0.5"/>
        <rect x="54" y="82" width="24" height="3" fill="#9CDCFE" opacity="0.85" rx="0.5"/>
        <rect x="44" y="88" width="10" height="3" fill="#C586C0" opacity="0.85" rx="0.5"/>
        <rect x="56" y="88" width="22" height="3" fill="#FFD700" opacity="0.85" rx="0.5"/>
        <rect x="46" y="94" width="4" height="3" fill="#569CD6" opacity="0.85" rx="0.5"/>
        <rect x="52" y="94" width="26" height="3" fill="#4ECDC4" opacity="0.85" rx="0.5"/>
        <rect x="44" y="100" width="8" height="3" fill="#DCDCAA" opacity="0.85" rx="0.5"/>
        <rect x="54" y="100" width="24" height="3" fill="#FF6B6B" opacity="0.85" rx="0.5"/>
        <rect x="44" y="106" width="6" height="3" fill="#CE9178" opacity="0.85" rx="0.5"/>
        <rect x="52" y="106" width="26" height="3" fill="#569CD6" opacity="0.85" rx="0.5"/>
      </g>
    </g>
    
    <!-- Panel 3 (/) - angling forward again -->
    <g transform="skewY(-3) translate(0, 2)">
      <path d="M 80 14 L 118 10 L 118 114 L 80 118 Z" fill="url(#panel3)"/>
      
      <!-- Code lines on panel 3 -->
      <g transform="skewY(3) translate(0, -2)">
        <rect x="80" y="22" width="4" height="3" fill="#9CDCFE" opacity="0.9" rx="0.5"/>
        <rect x="86" y="22" width="28" height="3" fill="#DCDCAA" opacity="0.9" rx="0.5"/>
        <rect x="80" y="28" width="6" height="3" fill="#FFD700" opacity="0.9" rx="0.5"/>
        <rect x="88" y="28" width="26" height="3" fill="#4EC9B0" opacity="0.9" rx="0.5"/>
        <rect x="82" y="34" width="2" height="3" fill="#4ECDC4" opacity="0.9" rx="0.5"/>
        <rect x="86" y="34" width="28" height="3" fill="#CE9178" opacity="0.9" rx="0.5"/>
        <rect x="82" y="40" width="8" height="3" fill="#FF6B6B" opacity="0.9" rx="0.5"/>
        <rect x="92" y="40" width="22" height="3" fill="#569CD6" opacity="0.9" rx="0.5"/>
        <rect x="82" y="46" width="6" height="3" fill="#569CD6" opacity="0.9" rx="0.5"/>
        <rect x="90" y="46" width="24" height="3" fill="#B5CEA8" opacity="0.9" rx="0.5"/>
        <rect x="82" y="52" width="4" height="3" fill="#B5CEA8" opacity="0.9" rx="0.5"/>
        <rect x="88" y="52" width="26" height="3" fill="#C586C0" opacity="0.9" rx="0.5"/>
        <rect x="82" y="58" width="8" height="3" fill="#C586C0" opacity="0.9" rx="0.5"/>
        <rect x="92" y="58" width="22" height="3" fill="#9CDCFE" opacity="0.9" rx="0.5"/>
        <rect x="82" y="64" width="2" height="3" fill="#DCDCAA" opacity="0.9" rx="0.5"/>
        <rect x="86" y="64" width="28" height="3" fill="#FFD700" opacity="0.9" rx="0.5"/>
        <rect x="82" y="70" width="6" height="3" fill="#4EC9B0" opacity="0.9" rx="0.5"/>
        <rect x="90" y="70" width="24" height="3" fill="#FF6B6B" opacity="0.9" rx="0.5"/>
        <rect x="82" y="76" width="4" height="3" fill="#CE9178" opacity="0.9" rx="0.5"/>
        <rect x="88" y="76" width="26" height="3" fill="#4ECDC4" opacity="0.9" rx="0.5"/>
        <rect x="82" y="82" width="8" height="3" fill="#9CDCFE" opacity="0.9" rx="0.5"/>
        <rect x="92" y="82" width="22" height="3" fill="#569CD6" opacity="0.9" rx="0.5"/>
        <rect x="82" y="88" width="6" height="3" fill="#FFD700" opacity="0.9" rx="0.5"/>
        <rect x="90" y="88" width="24" height="3" fill="#DCDCAA" opacity="0.9" rx="0.5"/>
        <rect x="82" y="94" width="2" height="3" fill="#4ECDC4" opacity="0.9" rx="0.5"/>
        <rect x="86" y="94" width="28" height="3" fill="#CE9178" opacity="0.9" rx="0.5"/>
        <rect x="82" y="100" width="8" height="3" fill="#FF6B6B" opacity="0.9" rx="0.5"/>
        <rect x="92" y="100" width="22" height="3" fill="#B5CEA8" opacity="0.9" rx="0.5"/>
        <rect x="82" y="106" width="4" height="3" fill="#569CD6" opacity="0.9" rx="0.5"/>
        <rect x="88" y="106" width="26" height="3" fill="#C586C0" opacity="0.9" rx="0.5"/>
      </g>
    </g>
  </g>
</svg>