<?xml version="1.0" encoding="UTF-8"?>
<svg width="128" height="128" viewBox="0 0 128 128" xmlns="http://www.w3.org/2000/svg">
  <defs>
    <!-- Radial gradient background -->
    <radialGradient id="bgRadial" cx="50%" cy="50%" r="70%">
      <stop offset="0%" style="stop-color:#0E7ACC;stop-opacity:1" />
      <stop offset="100%" style="stop-color:#0455A8;stop-opacity:1" />
    </radialGradient>
    
    <!-- Subtle shadow -->
    <filter id="paperShadow">
      <feDropShadow dx="1" dy="2" stdDeviation="2" flood-opacity="0.18"/>
    </filter>
  </defs>
  
  <!-- Background -->
  <rect width="128" height="128" fill="url(#bgRadial)" rx="16" ry="16"/>
  
  <!-- Source document (left) with slight rotation -->
  <g transform="rotate(-1 37 64)">
    <rect x="10" y="14" width="54" height="100" rx="2" ry="2" 
          fill="#fefefe" filter="url(#paperShadow)"/>
    
    <!-- Code lines on source -->
    <rect x="14" y="24" width="42" height="2" rx="0.5" fill="#569CD6" opacity="0.9"/>
    <rect x="14" y="30" width="36" height="2" rx="0.5" fill="#4EC9B0" opacity="0.9"/>
    <rect x="14" y="36" width="44" height="2" rx="0.5" fill="#C586C0" opacity="0.9"/>
    <rect x="14" y="42" width="32" height="2" rx="0.5" fill="#DCDCAA" opacity="0.9"/>
    <rect x="14" y="48" width="40" height="2" rx="0.5" fill="#CE9178" opacity="0.9"/>
    <rect x="14" y="54" width="38" height="2" rx="0.5" fill="#569CD6" opacity="0.9"/>
    <rect x="14" y="60" width="44" height="2" rx="0.5" fill="#B5CEA8" opacity="0.9"/>
    <rect x="14" y="66" width="36" height="2" rx="0.5" fill="#9CDCFE" opacity="0.9"/>
    <rect x="14" y="72" width="42" height="2" rx="0.5" fill="#FFD700" opacity="0.9"/>
    <rect x="14" y="78" width="38" height="2" rx="0.5" fill="#FF6B6B" opacity="0.9"/>
    <rect x="14" y="84" width="40" height="2" rx="0.5" fill="#4ECDC4" opacity="0.9"/>
    <rect x="14" y="90" width="36" height="2" rx="0.5" fill="#C586C0" opacity="0.9"/>
    <rect x="14" y="96" width="44" height="2" rx="0.5" fill="#569CD6" opacity="0.9"/>
    <rect x="14" y="102" width="38" height="2" rx="0.5" fill="#DCDCAA" opacity="0.9"/>
  </g>
  
  <!-- Generated document (right) with opposite rotation -->
  <g transform="rotate(1 91 64)">
    <rect x="64" y="14" width="54" height="100" rx="2" ry="2" 
          fill="#fefefe" filter="url(#paperShadow)"/>
    
    <!-- Code lines on generated -->
    <rect x="68" y="24" width="40" height="2" rx="0.5" fill="#9CDCFE" opacity="0.9"/>
    <rect x="68" y="30" width="44" height="2" rx="0.5" fill="#B5CEA8" opacity="0.9"/>
    <rect x="68" y="36" width="36" height="2" rx="0.5" fill="#FFD700" opacity="0.9"/>
    <rect x="68" y="42" width="42" height="2" rx="0.5" fill="#FF6B6B" opacity="0.9"/>
    <rect x="68" y="48" width="38" height="2" rx="0.5" fill="#4ECDC4" opacity="0.9"/>
    <rect x="68" y="54" width="40" height="2" rx="0.5" fill="#569CD6" opacity="0.9"/>
    <rect x="68" y="60" width="36" height="2" rx="0.5" fill="#CE9178" opacity="0.9"/>
    <rect x="68" y="66" width="44" height="2" rx="0.5" fill="#DCDCAA" opacity="0.9"/>
    <rect x="68" y="72" width="38" height="2" rx="0.5" fill="#9CDCFE" opacity="0.9"/>
    <rect x="68" y="78" width="42" height="2" rx="0.5" fill="#B5CEA8" opacity="0.9"/>
    <rect x="68" y="84" width="36" height="2" rx="0.5" fill="#FFD700" opacity="0.9"/>
    <rect x="68" y="90" width="44" height="2" rx="0.5" fill="#4ECDC4" opacity="0.9"/>
    <rect x="68" y="96" width="40" height="2" rx="0.5" fill="#FF6B6B" opacity="0.9"/>
    <rect x="68" y="102" width="42" height="2" rx="0.5" fill="#569CD6" opacity="0.9"/>
  </g>
  
  <!-- Smooth bezier connections -->
  <g stroke-width="2" fill="none" opacity="0.7" stroke-linecap="round">
    <path d="M 56 42 C 64 42, 64 42, 68 42" stroke="#DCDCAA"/>
    <path d="M 58 66 C 64 65, 64 67, 68 66" stroke="#9CDCFE"/>
    <path d="M 54 90 C 64 88, 64 92, 68 90" stroke="#C586C0"/>
  </g>
</svg>