<?xml version="1.0" encoding="UTF-8"?>
<svg width="128" height="128" viewBox="0 0 128 128" xmlns="http://www.w3.org/2000/svg">
  <defs>
    <!-- Wood table gradient -->
    <linearGradient id="woodTable" x1="0%" y1="0%" x2="100%" y2="100%">
      <stop offset="0%" style="stop-color:#0078D4;stop-opacity:1" />
      <stop offset="100%" style="stop-color:#0066cc;stop-opacity:1" />
    </linearGradient>
    
    <!-- Aged paper gradient -->
    <linearGradient id="agedPaper" x1="0%" y1="0%" x2="100%" y2="100%">
      <stop offset="0%" style="stop-color:#fefefe;stop-opacity:1" />
      <stop offset="50%" style="stop-color:#fcfcfc;stop-opacity:1" />
      <stop offset="100%" style="stop-color:#f9f9f9;stop-opacity:1" />
    </linearGradient>
    
    <!-- Valley fold gradient -->
    <linearGradient id="valleyFold" x1="0%" y1="0%" x2="100%" y2="0%">
      <stop offset="0%" style="stop-color:#000000;stop-opacity:0" />
      <stop offset="32%" style="stop-color:#000000;stop-opacity:0" />
      <stop offset="33%" style="stop-color:#000000;stop-opacity:0.1" />
      <stop offset="34%" style="stop-color:#000000;stop-opacity:0" />
      <stop offset="65%" style="stop-color:#000000;stop-opacity:0" />
      <stop offset="66%" style="stop-color:#000000;stop-opacity:0.1" />
      <stop offset="67%" style="stop-color:#000000;stop-opacity:0" />
      <stop offset="100%" style="stop-color:#000000;stop-opacity:0" />
    </linearGradient>
    
    <!-- Map shadow with blur -->
    <filter id="softShadow">
      <feGaussianBlur in="SourceAlpha" stdDeviation="4"/>
      <feOffset dx="0" dy="3" result="offsetblur"/>
      <feFlood flood-color="#000000" flood-opacity="0.2"/>
      <feComposite in2="offsetblur" operator="in"/>
      <feMerge>
        <feMergeNode/>
        <feMergeNode in="SourceGraphic"/>
      </feMerge>
    </filter>
  </defs>
  
  <!-- Background -->
  <rect width="128" height="128" fill="url(#woodTable)" rx="20" ry="20"/>
  
  <!-- Map with subtle transforms -->
  <g filter="url(#softShadow)">
    <!-- Left section (raised slightly) -->
    <g transform="translate(64, 64) rotateY(2) translate(-64, -64)">
      <rect x="10" y="10" width="36" height="108" fill="url(#agedPaper)"/>
      
      <!-- Code lines on left -->
      <rect x="14" y="20" width="26" height="2.2" rx="0.5" fill="#569CD6" opacity="0.88"/>
      <rect x="14" y="26" width="22" height="2.2" rx="0.5" fill="#4EC9B0" opacity="0.88"/>
      <rect x="14" y="32" width="28" height="2.2" rx="0.5" fill="#C586C0" opacity="0.88"/>
      <rect x="14" y="38" width="20" height="2.2" rx="0.5" fill="#DCDCAA" opacity="0.88"/>
      <rect x="14" y="44" width="24" height="2.2" rx="0.5" fill="#CE9178" opacity="0.88"/>
      <rect x="14" y="50" width="26" height="2.2" rx="0.5" fill="#569CD6" opacity="0.88"/>
      <rect x="14" y="56" width="22" height="2.2" rx="0.5" fill="#B5CEA8" opacity="0.88"/>
      <rect x="14" y="62" width="28" height="2.2" rx="0.5" fill="#9CDCFE" opacity="0.88"/>
      <rect x="14" y="68" width="24" height="2.2" rx="0.5" fill="#FFD700" opacity="0.88"/>
      <rect x="14" y="74" width="26" height="2.2" rx="0.5" fill="#FF6B6B" opacity="0.88"/>
      <rect x="14" y="80" width="22" height="2.2" rx="0.5" fill="#4ECDC4" opacity="0.88"/>
      <rect x="14" y="86" width="28" height="2.2" rx="0.5" fill="#C586C0" opacity="0.88"/>
      <rect x="14" y="92" width="24" height="2.2" rx="0.5" fill="#569CD6" opacity="0.88"/>
      <rect x="14" y="98" width="26" height="2.2" rx="0.5" fill="#DCDCAA" opacity="0.88"/>
      <rect x="14" y="104" width="22" height="2.2" rx="0.5" fill="#CE9178" opacity="0.88"/>
      <rect x="14" y="110" width="28" height="2.2" rx="0.5" fill="#B5CEA8" opacity="0.88"/>
    </g>
    
    <!-- Middle section (valley) -->
    <g transform="translate(64, 64) rotateY(-1.5) translate(-64, -64)">
      <rect x="46" y="10" width="36" height="108" fill="url(#agedPaper)"/>
      
      <!-- Code lines on middle -->
      <rect x="42" y="20" width="6" height="2.2" rx="0.5" fill="#569CD6" opacity="0.88"/>
      <rect x="50" y="20" width="28" height="2.2" rx="0.5" fill="#9CDCFE" opacity="0.88"/>
      <rect x="44" y="26" width="4" height="2.2" rx="0.5" fill="#4EC9B0" opacity="0.88"/>
      <rect x="50" y="26" width="26" height="2.2" rx="0.5" fill="#FFD700" opacity="0.88"/>
      <rect x="50" y="32" width="30" height="2.2" rx="0.5" fill="#4ECDC4" opacity="0.88"/>
      <rect x="44" y="38" width="4" height="2.2" rx="0.5" fill="#DCDCAA" opacity="0.88"/>
      <rect x="50" y="38" width="28" height="2.2" rx="0.5" fill="#FF6B6B" opacity="0.88"/>
      <rect x="42" y="44" width="6" height="2.2" rx="0.5" fill="#CE9178" opacity="0.88"/>
      <rect x="50" y="44" width="26" height="2.2" rx="0.5" fill="#569CD6" opacity="0.88"/>
      <rect x="44" y="50" width="4" height="2.2" rx="0.5" fill="#569CD6" opacity="0.88"/>
      <rect x="50" y="50" width="30" height="2.2" rx="0.5" fill="#B5CEA8" opacity="0.88"/>
      <rect x="50" y="56" width="28" height="2.2" rx="0.5" fill="#C586C0" opacity="0.88"/>
      <rect x="50" y="62" width="26" height="2.2" rx="0.5" fill="#DCDCAA" opacity="0.88"/>
      <rect x="50" y="68" width="30" height="2.2" rx="0.5" fill="#4EC9B0" opacity="0.88"/>
      <rect x="44" y="74" width="4" height="2.2" rx="0.5" fill="#FF6B6B" opacity="0.88"/>
      <rect x="50" y="74" width="28" height="2.2" rx="0.5" fill="#CE9178" opacity="0.88"/>
      <rect x="50" y="80" width="26" height="2.2" rx="0.5" fill="#9CDCFE" opacity="0.88"/>
      <rect x="50" y="86" width="30" height="2.2" rx="0.5" fill="#FFD700" opacity="0.88"/>
      <rect x="50" y="92" width="28" height="2.2" rx="0.5" fill="#4ECDC4" opacity="0.88"/>
      <rect x="44" y="98" width="4" height="2.2" rx="0.5" fill="#DCDCAA" opacity="0.88"/>
      <rect x="50" y="98" width="26" height="2.2" rx="0.5" fill="#FF6B6B" opacity="0.88"/>
      <rect x="50" y="104" width="30" height="2.2" rx="0.5" fill="#569CD6" opacity="0.88"/>
      <rect x="50" y="110" width="28" height="2.2" rx="0.5" fill="#C586C0" opacity="0.88"/>
    </g>
    
    <!-- Right section (raised) -->
    <g transform="translate(64, 64) rotateY(2) translate(-64, -64)">
      <rect x="82" y="10" width="36" height="108" fill="url(#agedPaper)"/>
      
      <!-- Code lines on right -->
      <rect x="82" y="20" width="4" height="2.2" rx="0.5" fill="#9CDCFE" opacity="0.88"/>
      <rect x="88" y="20" width="26" height="2.2" rx="0.5" fill="#DCDCAA" opacity="0.88"/>
      <rect x="80" y="26" width="6" height="2.2" rx="0.5" fill="#FFD700" opacity="0.88"/>
      <rect x="88" y="26" width="24" height="2.2" rx="0.5" fill="#4EC9B0" opacity="0.88"/>
      <rect x="82" y="32" width="4" height="2.2" rx="0.5" fill="#4ECDC4" opacity="0.88"/>
      <rect x="88" y="32" width="26" height="2.2" rx="0.5" fill="#CE9178" opacity="0.88"/>
      <rect x="80" y="38" width="6" height="2.2" rx="0.5" fill="#FF6B6B" opacity="0.88"/>
      <rect x="88" y="38" width="24" height="2.2" rx="0.5" fill="#569CD6" opacity="0.88"/>
      <rect x="78" y="44" width="8" height="2.2" rx="0.5" fill="#569CD6" opacity="0.88"/>
      <rect x="88" y="44" width="26" height="2.2" rx="0.5" fill="#B5CEA8" opacity="0.88"/>
      <rect x="82" y="50" width="4" height="2.2" rx="0.5" fill="#B5CEA8" opacity="0.88"/>
      <rect x="88" y="50" width="24" height="2.2" rx="0.5" fill="#C586C0" opacity="0.88"/>
      <rect x="80" y="56" width="6" height="2.2" rx="0.5" fill="#C586C0" opacity="0.88"/>
      <rect x="88" y="56" width="26" height="2.2" rx="0.5" fill="#9CDCFE" opacity="0.88"/>
      <rect x="78" y="62" width="8" height="2.2" rx="0.5" fill="#DCDCAA" opacity="0.88"/>
      <rect x="88" y="62" width="24" height="2.2" rx="0.5" fill="#FFD700" opacity="0.88"/>
      <rect x="82" y="68" width="4" height="2.2" rx="0.5" fill="#4EC9B0" opacity="0.88"/>
      <rect x="88" y="68" width="26" height="2.2" rx="0.5" fill="#FF6B6B" opacity="0.88"/>
      <rect x="80" y="74" width="6" height="2.2" rx="0.5" fill="#CE9178" opacity="0.88"/>
      <rect x="88" y="74" width="24" height="2.2" rx="0.5" fill="#4ECDC4" opacity="0.88"/>
      <rect x="78" y="80" width="8" height="2.2" rx="0.5" fill="#9CDCFE" opacity="0.88"/>
      <rect x="88" y="80" width="26" height="2.2" rx="0.5" fill="#569CD6" opacity="0.88"/>
      <rect x="82" y="86" width="4" height="2.2" rx="0.5" fill="#FFD700" opacity="0.88"/>
      <rect x="88" y="86" width="24" height="2.2" rx="0.5" fill="#DCDCAA" opacity="0.88"/>
      <rect x="80" y="92" width="6" height="2.2" rx="0.5" fill="#4ECDC4" opacity="0.88"/>
      <rect x="88" y="92" width="26" height="2.2" rx="0.5" fill="#CE9178" opacity="0.88"/>
      <rect x="78" y="98" width="8" height="2.2" rx="0.5" fill="#FF6B6B" opacity="0.88"/>
      <rect x="88" y="98" width="24" height="2.2" rx="0.5" fill="#B5CEA8" opacity="0.88"/>
      <rect x="82" y="104" width="4" height="2.2" rx="0.5" fill="#569CD6" opacity="0.88"/>
      <rect x="88" y="104" width="26" height="2.2" rx="0.5" fill="#C586C0" opacity="0.88"/>
      <rect x="88" y="110" width="24" height="2.2" rx="0.5" fill="#9CDCFE" opacity="0.88"/>
    </g>
    
    <!-- Valley fold shadows -->
    <rect x="10" y="10" width="108" height="108" fill="url(#valleyFold)"/>
  </g>
</svg>